<?xml version="1.0" encoding="utf-8"?>
<!-- Generator: Adobe Illustrator 26.0.2, SVG Export Plug-In . SVG Version: 6.00 Build 0)  -->
<svg version="1.1" id="Слой_1" xmlns="http://www.w3.org/2000/svg" xmlns:xlink="http://www.w3.org/1999/xlink" x="0px" y="0px"
	 viewBox="0 0 512 512" style="enable-background:new 0 0 512 512;" xml:space="preserve">
<style type="text/css">
	.st0{fill:#545454;}
</style>
<g>
	<rect class="st0" width="512" height="512"/>
</g>
<g>
	<g>
		<path d="M116.73,80.96l-16.93,3.51l-7.46-35.98c-0.84-4.04-3.3-7.66-6.76-9.92l-10.37-6.76l5.8-8.84c0.63-0.96,0.36-2.25-0.6-2.88
			L67.6,11.68c-0.96-0.63-2.25-0.36-2.88,0.6l-5.83,8.88l-5.58-3.64c-0.96-0.63-2.25-0.36-2.88,0.6l-6.4,9.75
			c-0.3,0.46-0.41,1.02-0.3,1.57s0.43,1.01,0.9,1.32l5.57,3.65l-9.31,14.18c-0.63,0.96-0.36,2.25,0.6,2.88l1.96,1.28l-7.1,10.82
			c-0.63,0.96-0.36,2.25,0.6,2.88l5.42,3.56c0.48,0.32,1.04,0.41,1.57,0.3s1-0.42,1.32-0.9l7.1-10.82l1.96,1.28
			c0.48,0.32,1.04,0.41,1.57,0.3s1-0.42,1.32-0.9l9.31-14.18l6.43,4.22c2.56,1.68,4.31,4.26,4.94,7.26l6.45,31.11l-40.78,8.46
			l-1.48-7.14l12.85-2.66c1.13-0.23,1.85-1.34,1.62-2.46l-1.57-7.56c-0.23-1.13-1.34-1.85-2.46-1.62l-29.57,6.13
			c-1.13,0.23-1.85,1.34-1.62,2.46l1.57,7.56c0.23,1.13,1.34,1.85,2.46,1.62l12.64-2.62l1.48,7.14l-21,4.36
			c-1.13,0.23-1.85,1.34-1.62,2.46L20.2,120c0.23,1.13,1.34,1.85,2.46,1.62l98.28-20.39c1.13-0.23,1.85-1.34,1.62-2.46l-3.36-16.19
			C118.96,81.45,117.86,80.73,116.73,80.96z M67.06,16.3l9.33,6.13l-4.66,7.1l-9.35-6.1L67.06,16.3z M42.9,65.39l-1.93-1.27
			l5.96-9.08l1.93,1.27L42.9,65.39z M54.84,55.26l-1.96-1.28c0,0,0,0,0,0l-5.42-3.56c0,0,0,0,0,0l-1.96-1.28l8.17-12.44l9.33,6.13
			L54.84,55.26z M75.21,45.84L48.65,28.41l4.12-6.27L83.3,42.06c2.54,1.66,4.35,4.31,4.96,7.28l7.46,35.98l-7.34,1.52l-6.45-31.11
			C81.09,51.65,78.7,48.13,75.21,45.84z M26.53,87.98l-0.72-3.48l25.49-5.29l0.72,3.48L26.53,87.98z M118.05,97.57l-94.2,19.54
			L21.34,105l94.2-19.54L118.05,97.57L118.05,97.57z"/>
	</g>
</g>
<g>
	<g>
		<path d="M182.92,168.63c0-5.59-5.9-10.56-16.23-13.73c2.42-10.53,1.07-18.12-3.77-20.92c-4.84-2.8-12.09-0.17-20,7.19
			c-7.91-7.37-15.15-9.99-20-7.19c-2.17,1.25-3.68,3.55-4.41,6.67c-2.16,0.4-3.8,2.29-3.8,4.56c0,2.17,1.5,4,3.53,4.5
			c0.19,1.65,0.5,3.38,0.91,5.18c-10.33,3.17-16.23,8.13-16.23,13.73c0,5.59,5.89,10.56,16.23,13.72
			c-2.42,10.53-1.07,18.12,3.77,20.92c1.25,0.72,2.68,1.08,4.26,1.08c1.65,0,3.46-0.4,5.38-1.19c0.84,0.87,2.02,1.41,3.32,1.41
			c2.56,0,4.63-2.08,4.63-4.63c0-0.54-0.09-1.06-0.26-1.54c0.89-0.72,1.78-1.49,2.67-2.32c5.83,5.43,11.31,8.29,15.72,8.28
			c1.57,0,3.01-0.36,4.28-1.09c4.84-2.8,6.2-10.38,3.77-20.91c2.56-0.79,4.88-1.7,6.92-2.72c0.82,0.73,1.9,1.18,3.09,1.18
			c2.56,0,4.63-2.08,4.63-4.63c0-0.73-0.17-1.42-0.47-2.04C182.23,172.39,182.92,170.54,182.92,168.63z M161.54,136.37
			c3.6,2.08,4.52,8.83,2.49,17.78c-3.58-0.93-7.47-1.6-11.59-2.01c-2.42-3.36-4.95-6.39-7.54-9.03
			C151.63,136.87,157.94,134.3,161.54,136.37z M128.23,177.11c0.99,1.71,2.02,3.38,3.09,4.99c-3.11-0.4-6.07-0.96-8.84-1.68
			c0.76-2.75,1.76-5.59,2.97-8.49C126.32,173.67,127.25,175.41,128.23,177.11z M122.48,156.82c2.77-0.71,5.72-1.27,8.84-1.68
			c-1.07,1.61-2.1,3.28-3.09,4.99c-0.98,1.7-1.91,3.44-2.78,5.18C124.24,162.42,123.24,159.57,122.48,156.82z M130.62,175.73
			c-1.34-2.33-2.59-4.71-3.71-7.1c1.12-2.39,2.36-4.77,3.71-7.1c1.36-2.35,2.8-4.62,4.3-6.76c5.23-0.45,10.77-0.45,16.01,0
			c1.5,2.14,2.94,4.41,4.3,6.76c1.35,2.33,2.59,4.72,3.71,7.1c-1.12,2.39-2.36,4.78-3.71,7.1c-1.36,2.35-2.8,4.62-4.3,6.76
			c-5.24,0.45-10.77,0.45-16.01,0C133.42,180.35,131.97,178.08,130.62,175.73z M157.61,177.11c0.98-1.7,1.91-3.43,2.78-5.17
			c1.21,2.9,2.2,5.74,2.97,8.49c-2.76,0.71-5.72,1.27-8.84,1.68C155.59,180.49,156.62,178.82,157.61,177.11z M160.39,165.32
			c-0.87-1.74-1.8-3.47-2.78-5.18c-0.99-1.71-2.02-3.38-3.09-4.99c3.11,0.4,6.07,0.96,8.84,1.68
			C162.59,159.58,161.6,162.42,160.39,165.32z M142.92,145.02c2,2.04,3.97,4.32,5.87,6.82c-3.88-0.23-7.87-0.23-11.74,0
			C138.95,149.34,140.92,147.06,142.92,145.02z M124.3,136.37c3.6-2.08,9.91,0.5,16.64,6.73c-2.6,2.65-5.13,5.68-7.54,9.03
			c-4.12,0.41-8.01,1.09-11.59,2.02c-0.36-1.6-0.64-3.14-0.81-4.61c1.74-0.67,2.99-2.36,2.99-4.33c0-1.87-1.12-3.49-2.72-4.22
			C121.82,138.77,122.84,137.21,124.3,136.37z M117.47,145.21c0-1.03,0.84-1.88,1.88-1.88s1.88,0.84,1.88,1.88
			c0,1.03-0.84,1.88-1.88,1.88S117.47,146.25,117.47,145.21z M105.68,168.63c0-4.15,5.38-8.33,14.15-11.05
			c0.99,3.56,2.35,7.27,4.05,11.05c-1.7,3.78-3.06,7.48-4.05,11.05C111.06,176.95,105.68,172.78,105.68,168.63z M135.88,201.81
			c-1.03,0-1.88-0.84-1.88-1.88c0-1.03,0.84-1.88,1.88-1.88c1.03,0,1.88,0.84,1.88,1.88C137.76,200.97,136.91,201.81,135.88,201.81z
			 M138.6,196.19c-0.76-0.56-1.7-0.89-2.72-0.89c-2.56,0-4.63,2.08-4.63,4.63c0,0.26,0.02,0.51,0.06,0.76
			c-2.19,0.86-4.89,1.41-7.01,0.18c-3.6-2.08-4.52-8.83-2.49-17.78c3.59,0.93,7.48,1.6,11.59,2.02c2.41,3.36,4.95,6.39,7.54,9.04
			C140.16,194.87,139.38,195.55,138.6,196.19z M142.92,192.23c-2-2.04-3.97-4.32-5.87-6.82c1.94,0.12,3.9,0.18,5.87,0.18
			c1.97,0,3.93-0.06,5.87-0.18C146.89,187.91,144.92,190.19,142.92,192.23z M161.54,200.88c-3.6,2.08-9.9-0.5-16.64-6.73
			c2.6-2.64,5.13-5.67,7.54-9.03c4.12-0.41,8.01-1.09,11.59-2.01C166.06,192.05,165.14,198.8,161.54,200.88z M176.7,178.06
			c-1.03,0-1.88-0.84-1.88-1.88c0-1.03,0.84-1.88,1.88-1.88c1.03,0,1.88,0.84,1.88,1.88C178.58,177.22,177.74,178.06,176.7,178.06z
			 M178.93,172.12c-0.66-0.36-1.42-0.57-2.23-0.57c-2.56,0-4.63,2.08-4.63,4.63c0,0.37,0.04,0.73,0.13,1.08
			c-1.82,0.9-3.89,1.71-6.18,2.42c-0.99-3.57-2.35-7.28-4.05-11.05c1.7-3.77,3.06-7.48,4.05-11.05c8.76,2.72,14.15,6.9,14.15,11.05
			C180.16,169.8,179.75,170.97,178.93,172.12z"/>
	</g>
</g>
<g>
	<g>
		<g>
			<path d="M268.29,86.31c-0.63-0.73-1.87-0.73-2.51,0l-11.67,13.33c-0.43,0.49-0.53,1.19-0.26,1.79c0.27,0.6,0.86,0.98,1.52,0.98
				h23.33c0.65,0,1.25-0.38,1.52-0.98c0.27-0.59,0.17-1.29-0.26-1.79L268.29,86.31z M259.04,99.07l7.99-9.13l7.99,9.13H259.04z"/>
			<path d="M308.6,66.84c-0.31-0.87-1.26-1.31-2.13-1l-53.76,19.55c1.67-2.23,2.66-4.99,2.66-7.98c0-7.35-5.98-13.34-13.33-13.34
				s-13.33,5.98-13.33,13.34c0,6.3,4.39,11.59,10.27,12.97l-5.84,2.12c-0.87,0.31-1.31,1.27-1,2.13c0.25,0.68,0.89,1.1,1.57,1.1
				c0.19,0,0.38-0.03,0.57-0.1l73.33-26.67C308.47,68.66,308.91,67.71,308.6,66.84z M232.03,77.41c0-5.52,4.48-10,10-10
				c5.52,0,10,4.48,10,10c0,5.52-4.48,10-10,10C236.51,87.41,232.03,82.93,232.03,77.41z"/>
			<path d="M290.36,49.08c6.44,0,11.67-5.23,11.67-11.67c0-6.44-5.22-11.67-11.67-11.67c-6.44,0-11.67,5.22-11.67,11.67
				C278.69,43.85,283.92,49.08,290.36,49.08z M290.36,29.07c4.59,0,8.33,3.74,8.33,8.34c0,4.59-3.74,8.33-8.33,8.33
				c-4.6,0-8.34-3.74-8.34-8.33C282.03,32.81,285.77,29.07,290.36,29.07z"/>
		</g>
	</g>
</g>
<path d="M306.68,240.15l-84.94-38.68c-0.77-0.35-1.69,0.01-2.05,0.8s-0.03,1.72,0.75,2.07l27.07,12.33l-1.34,2.94
	c-8.17-2.84-17.42,1.12-21.16,9.35l-18.17,39.89l-0.74-3.28c-0.19-0.84-1.02-1.36-1.85-1.15c-0.83,0.21-1.35,1.06-1.16,1.9
	l1.74,7.73c0,0,0,0.01,0,0.01c0.01,0.05,0.02,0.1,0.04,0.14c0,0.01,0,0.01,0.01,0.02c0.02,0.05,0.04,0.11,0.07,0.16
	c0,0.01,0.01,0.01,0.01,0.02c0.02,0.04,0.05,0.09,0.07,0.13c0.01,0.01,0.02,0.02,0.02,0.03c0.02,0.03,0.05,0.07,0.07,0.1
	c0.01,0.01,0.02,0.02,0.03,0.04c0.03,0.03,0.05,0.06,0.08,0.09c0.01,0.01,0.02,0.02,0.03,0.03c0.03,0.03,0.06,0.06,0.09,0.08
	c0.01,0.01,0.02,0.02,0.03,0.03c0.03,0.03,0.07,0.05,0.11,0.07c0.01,0.01,0.02,0.01,0.03,0.02c0.05,0.03,0.1,0.06,0.15,0.08
	c0.05,0.02,0.11,0.04,0.16,0.06c0.01,0,0.03,0.01,0.04,0.01c0.04,0.01,0.08,0.02,0.12,0.03c0.02,0,0.03,0.01,0.05,0.01
	c0.04,0.01,0.08,0.01,0.11,0.02c0.02,0,0.04,0,0.05,0c0.04,0,0.07,0,0.11,0c0.02,0,0.04,0,0.06,0c0.04,0,0.07-0.01,0.11-0.01
	c0.02,0,0.04,0,0.06-0.01c0.04-0.01,0.08-0.02,0.12-0.02c0.02,0,0.03-0.01,0.05-0.01c0.05-0.01,0.1-0.03,0.15-0.05
	c0.02-0.01,0.03-0.01,0.05-0.02c0.03-0.01,0.07-0.03,0.1-0.05c0.01,0,0.01-0.01,0.02-0.01l6.97-3.76c0.76-0.41,1.06-1.36,0.67-2.13
	c-0.39-0.76-1.32-1.05-2.08-0.64l-2.96,1.6l14.04-30.83c0.94,5.34,4.33,10.1,9.54,12.47c5.2,2.37,11.02,1.8,15.67-0.99l-9.41,20.65
	c-3.74,8.22-0.67,17.8,6.84,22.1l-1.34,2.94l-6.07-2.76c-0.71-0.32-1.56-0.05-1.97,0.64l-9.69,16.33c-0.23,0.39-0.29,0.85-0.16,1.27
	c0.13,0.43,0.43,0.77,0.83,0.95l18.67,8.5c0.77,0.35,1.69-0.01,2.05-0.8c0.04-0.09,0.07-0.18,0.1-0.28l5.92-17.91
	c0.25-0.76-0.1-1.59-0.81-1.91l-6.07-2.76l1.34-2.94c8.17,2.84,17.42-1.12,21.16-9.35l22.03-48.38l13.07,5.95
	c0.77,0.35,1.69-0.01,2.05-0.8C307.79,241.43,307.45,240.5,306.68,240.15z M246.32,317.81l-15.54-7.08l8.07-13.6l12.43,5.66
	L246.32,317.81z M234.52,248.89c-6.95-3.16-9.96-11.53-6.72-18.66c3.02-6.64,10.43-9.89,17.05-7.74l-1.32,2.89
	c-5.06-1.46-10.63,1.07-12.93,6.12c-2.52,5.54-0.18,12.05,5.22,14.51c4.14,1.89,9.08,0.88,12.29-2.49c0.6-0.63,0.59-1.62-0.02-2.22
	c-0.61-0.6-1.59-0.57-2.19,0.06c-2.29,2.41-5.82,3.13-8.78,1.78c-3.86-1.76-5.53-6.41-3.73-10.37c1.8-3.96,6.41-5.75,10.27-3.99
	c2.96,1.35,4.73,4.48,4.42,7.79c-0.08,0.86,0.54,1.62,1.39,1.69c0.85,0.07,1.6-0.58,1.69-1.45c0.39-4.11-1.52-8.01-4.84-10.16
	l1.32-2.89c5.97,3.58,8.38,11.3,5.35,17.94C249.76,248.83,241.47,252.05,234.52,248.89z M250.43,291.91l1.32-2.89
	c3.8,1.09,8-0.03,10.84-3.02c0.6-0.63,0.59-1.62-0.02-2.22c-0.61-0.6-1.59-0.57-2.19,0.06c-2.29,2.41-5.82,3.13-8.78,1.78
	c-3.86-1.76-5.53-6.41-3.73-10.37c1.8-3.96,6.41-5.75,10.27-3.99c2.96,1.35,4.73,4.48,4.42,7.79c-0.08,0.86,0.54,1.62,1.39,1.69
	c0.85,0.07,1.6-0.58,1.69-1.45c0.44-4.64-2.05-9.02-6.19-10.9c-5.4-2.46-11.85,0.04-14.38,5.59c-2.3,5.05-0.55,10.91,3.87,13.77
	l-1.32,2.89c-5.97-3.58-8.38-11.3-5.35-17.94c3.24-7.12,11.54-10.35,18.48-7.18c6.95,3.16,9.96,11.53,6.72,18.66
	C264.45,290.81,257.04,294.06,250.43,291.91z M271.6,275.11c-0.94-5.33-4.33-10.1-9.54-12.47c-5.2-2.37-11.02-1.8-15.67,0.99
	l9.41-20.65c3.74-8.22,0.67-17.8-6.84-22.1l1.34-2.94l39.2,17.85L271.6,275.11z"/>
<g>
	<g>
		<g>
			<path d="M89.91,264.46c-2.46,1.04-3.61,3.89-2.57,6.34c1.04,2.46,3.89,3.61,6.34,2.57c2.46-1.04,3.61-3.89,2.57-6.34
				C95.21,264.58,92.37,263.42,89.91,264.46z"/>
			<path d="M48.54,281.96c-2.46,1.04-3.61,3.89-2.57,6.34c1.04,2.46,3.89,3.61,6.34,2.57c2.46-1.04,3.61-3.89,2.57-6.34
				C53.85,282.08,51,280.92,48.54,281.96z"/>
			<path d="M60.36,276.96c-2.46,1.04-3.61,3.89-2.57,6.34c1.04,2.46,3.89,3.61,6.34,2.57c2.46-1.04,3.61-3.89,2.57-6.34
				C65.67,277.08,62.82,275.92,60.36,276.96z"/>
			<path d="M72.18,271.96c-2.46,1.04-3.61,3.89-2.57,6.34c1.04,2.46,3.89,3.61,6.34,2.57c2.46-1.04,3.61-3.89,2.57-6.34
				C77.48,272.08,74.64,270.92,72.18,271.96z"/>
			<path d="M61.05,273.52l-8.79-20.78l-3.63,1.54l8.79,20.78c0.52-0.39,1.09-0.73,1.72-1C59.76,273.79,60.4,273.62,61.05,273.52z"/>
			<path d="M80.22,229.88l-50.13,21.21c-0.84,0.36-1.24,1.33-0.88,2.18l1.43,3.39c0.36,0.84,1.33,1.24,2.18,0.88l50.13-21.21
				c0.84-0.36,1.24-1.33,0.88-2.18l-1.43-3.39C82.04,229.92,81.06,229.52,80.22,229.88z"/>
			<path d="M49.23,278.52l-8.79-20.78l-3.63,1.54l8.79,20.78c0.52-0.39,1.09-0.73,1.72-1C47.94,278.8,48.58,278.62,49.23,278.52z"/>
			<path d="M72.86,268.52l-8.79-20.78l-3.63,1.54l8.79,20.78c0.52-0.39,1.09-0.73,1.72-1C71.58,268.79,72.22,268.62,72.86,268.52z"
				/>
			<path d="M88.68,261.56c0.5-0.21,1-0.36,1.51-0.47l-16.52-17.41l-3.88,1.64l16.71,17.62C87.13,262.37,87.86,261.9,88.68,261.56z"
				/>
		</g>
	</g>
</g>
<g>
	<g>
		<path d="M286.78,433.81l0.01-8.97c2.46-0.64,4.29-2.86,4.29-5.51c0-3.15-2.56-5.71-5.71-5.71c-1.58,0-3.02,0.65-4.05,1.69
			l-7.61-4.44c0.14-0.49,0.24-1,0.24-1.54c0-2.66-1.84-4.89-4.31-5.52l0.01-10.4c2.46-0.64,4.29-2.86,4.29-5.51
			c0-3.15-2.56-5.71-5.71-5.71c-1.58,0-3.02,0.65-4.05,1.69l-7.61-4.44c0.14-0.49,0.24-1,0.24-1.54c0-3.15-2.56-5.71-5.71-5.71
			s-5.71,2.56-5.71,5.71c0,0.54,0.1,1.05,0.24,1.54l-7.61,4.44c-1.04-1.05-2.47-1.69-4.05-1.69c-3.15,0-5.71,2.56-5.71,5.71
			c0,2.66,1.83,4.87,4.29,5.51v10.41c-2.46,0.64-4.29,2.86-4.29,5.51c0,0.54,0.1,1.05,0.24,1.54l-7.61,4.44
			c-1.04-1.05-2.47-1.69-4.05-1.69c-3.15,0-5.71,2.56-5.71,5.71c0,2.66,1.83,4.87,4.29,5.51v8.98c-2.46,0.64-4.29,2.86-4.29,5.51
			c0,3.15,2.56,5.71,5.71,5.71c1.58,0,3.02-0.65,4.05-1.69l7.61,4.44c-0.14,0.49-0.24,1-0.24,1.54c0,3.15,2.56,5.71,5.71,5.71
			c3.15,0,5.71-2.56,5.71-5.71c0-0.54-0.1-1.05-0.24-1.54l7.61-4.44c1.04,1.05,2.47,1.7,4.06,1.7c1.58,0,3.02-0.65,4.05-1.69
			l7.61,4.44c-0.14,0.49-0.24,1-0.24,1.54c0,3.15,2.56,5.71,5.71,5.71c3.15,0,5.71-2.56,5.71-5.71c0-0.54-0.1-1.05-0.24-1.54
			l7.61-4.44c1.04,1.05,2.47,1.7,4.06,1.7c3.15,0,5.71-2.56,5.71-5.71C291.09,436.66,289.25,434.44,286.78,433.81z M249.64,433.8
			c-0.16,0.04-0.32,0.11-0.48,0.17c-0.12,0.04-0.25,0.08-0.37,0.13c-0.3,0.13-0.59,0.29-0.86,0.47c-0.11,0.07-0.2,0.16-0.3,0.23
			c-0.17,0.13-0.34,0.26-0.49,0.4c-0.11,0.1-0.21,0.22-0.31,0.33c-0.13,0.14-0.25,0.28-0.36,0.44c-0.09,0.12-0.17,0.25-0.25,0.38
			c-0.1,0.17-0.19,0.34-0.28,0.52c-0.06,0.13-0.12,0.26-0.18,0.4c-0.08,0.21-0.14,0.42-0.2,0.64c-0.03,0.12-0.07,0.23-0.09,0.35
			c-0.07,0.35-0.11,0.7-0.11,1.07c0,0.33,0.04,0.65,0.1,0.97c0.02,0.13,0.05,0.26,0.08,0.39c0.02,0.06,0.02,0.12,0.04,0.18
			l-7.6,4.44c-1.04-1.04-2.47-1.69-4.05-1.69c-1.59,0-3.02,0.65-4.06,1.69l-7.59-4.43c0.02-0.07,0.03-0.14,0.05-0.22
			c0.03-0.11,0.05-0.22,0.07-0.34c0.06-0.33,0.1-0.66,0.1-1c0-0.37-0.04-0.72-0.11-1.07c-0.02-0.11-0.06-0.22-0.09-0.33
			c-0.06-0.23-0.12-0.46-0.21-0.68c-0.05-0.12-0.1-0.24-0.16-0.36c-0.09-0.2-0.2-0.39-0.31-0.57c-0.07-0.11-0.14-0.22-0.22-0.33
			c-0.13-0.18-0.27-0.35-0.42-0.51c-0.08-0.09-0.16-0.18-0.24-0.26c-0.19-0.18-0.4-0.35-0.61-0.51c-0.06-0.04-0.11-0.1-0.18-0.14
			c-0.28-0.19-0.58-0.35-0.9-0.49c-0.09-0.04-0.18-0.06-0.28-0.1c-0.19-0.07-0.37-0.15-0.56-0.2v-8.93c0.19-0.05,0.38-0.13,0.56-0.2
			c0.09-0.03,0.19-0.06,0.28-0.1c0.31-0.14,0.62-0.3,0.9-0.49c0.06-0.04,0.12-0.09,0.18-0.14c0.22-0.16,0.42-0.32,0.61-0.51
			c0.09-0.08,0.16-0.18,0.24-0.26c0.15-0.16,0.29-0.33,0.42-0.51c0.08-0.11,0.15-0.21,0.22-0.33c0.12-0.18,0.22-0.37,0.31-0.57
			c0.06-0.12,0.11-0.23,0.16-0.36c0.09-0.22,0.15-0.45,0.21-0.68c0.03-0.11,0.06-0.22,0.09-0.33c0.07-0.35,0.11-0.7,0.11-1.07
			c0-0.34-0.04-0.67-0.1-1c-0.02-0.12-0.05-0.23-0.07-0.34c-0.02-0.07-0.03-0.14-0.05-0.22l7.59-4.43c1.04,1.04,2.47,1.69,4.06,1.69
			c0.41,0,0.81-0.05,1.19-0.13c0.11-0.02,0.22-0.07,0.33-0.1c0.27-0.07,0.53-0.15,0.78-0.26c0.12-0.05,0.22-0.12,0.33-0.18
			c0.24-0.12,0.47-0.25,0.69-0.41c0.09-0.07,0.17-0.14,0.26-0.22c0.23-0.18,0.44-0.38,0.64-0.59c0.02-0.03,0.05-0.04,0.08-0.07
			l3.62,1.81l3.64,1.82c-0.08,0.39-0.13,0.78-0.13,1.19c0,0.37,0.04,0.72,0.11,1.07c0.02,0.11,0.06,0.22,0.09,0.33
			c0.06,0.23,0.12,0.45,0.21,0.67c0.05,0.13,0.11,0.24,0.16,0.36c0.09,0.19,0.19,0.38,0.3,0.56c0.07,0.12,0.14,0.23,0.22,0.34
			c0.13,0.17,0.26,0.34,0.41,0.5c0.09,0.09,0.17,0.19,0.26,0.28c0.18,0.18,0.38,0.34,0.59,0.49c0.07,0.05,0.13,0.11,0.2,0.15
			c0.28,0.19,0.58,0.35,0.89,0.49c0.09,0.04,0.19,0.06,0.28,0.1c0.18,0.07,0.36,0.14,0.55,0.19L249.64,433.8z M251.09,412.18
			c-0.41,0-0.81,0.05-1.19,0.13c-0.11,0.03-0.22,0.07-0.33,0.1c-0.27,0.07-0.53,0.15-0.78,0.26c-0.12,0.05-0.22,0.12-0.33,0.18
			c-0.24,0.12-0.47,0.25-0.68,0.41c-0.09,0.07-0.17,0.14-0.26,0.22c-0.23,0.18-0.44,0.38-0.64,0.59c-0.02,0.03-0.05,0.04-0.08,0.07
			l-3.62-1.81l-3.64-1.82c0.08-0.39,0.13-0.78,0.13-1.19c0-0.37-0.04-0.72-0.11-1.07c-0.02-0.11-0.06-0.22-0.09-0.33
			c-0.06-0.23-0.12-0.46-0.21-0.68c-0.05-0.12-0.1-0.24-0.16-0.36c-0.09-0.2-0.2-0.39-0.31-0.57c-0.07-0.11-0.14-0.22-0.22-0.33
			c-0.13-0.18-0.27-0.35-0.42-0.51c-0.08-0.09-0.16-0.18-0.24-0.26c-0.19-0.18-0.4-0.35-0.61-0.51c-0.06-0.04-0.11-0.1-0.18-0.14
			c-0.28-0.19-0.58-0.35-0.9-0.49c-0.09-0.04-0.18-0.06-0.28-0.1c-0.19-0.07-0.37-0.15-0.56-0.2v-10.36
			c0.19-0.05,0.38-0.13,0.56-0.2c0.09-0.03,0.19-0.06,0.28-0.1c0.31-0.14,0.62-0.3,0.9-0.49c0.06-0.04,0.12-0.09,0.18-0.14
			c0.22-0.16,0.42-0.32,0.61-0.51c0.09-0.08,0.16-0.18,0.24-0.26c0.15-0.16,0.29-0.33,0.42-0.51c0.08-0.11,0.15-0.21,0.22-0.33
			c0.12-0.18,0.22-0.37,0.31-0.57c0.06-0.12,0.11-0.23,0.16-0.36c0.09-0.22,0.15-0.45,0.21-0.68c0.03-0.11,0.06-0.22,0.09-0.33
			c0.07-0.35,0.11-0.7,0.11-1.07c0-0.34-0.04-0.67-0.1-1c-0.02-0.12-0.05-0.23-0.07-0.34c-0.02-0.07-0.03-0.14-0.05-0.22l7.59-4.43
			c1.04,1.04,2.47,1.69,4.06,1.69c1.58,0,3.02-0.65,4.05-1.69l7.59,4.43c-0.02,0.07-0.03,0.14-0.05,0.22
			c-0.03,0.11-0.05,0.22-0.07,0.34c-0.06,0.33-0.1,0.66-0.1,1c0,0.37,0.04,0.72,0.11,1.07c0.02,0.11,0.06,0.22,0.09,0.33
			c0.06,0.23,0.12,0.45,0.21,0.67c0.05,0.13,0.11,0.24,0.16,0.36c0.09,0.19,0.19,0.38,0.3,0.56c0.07,0.12,0.14,0.23,0.22,0.34
			c0.13,0.17,0.26,0.34,0.41,0.5c0.09,0.09,0.17,0.19,0.26,0.28c0.18,0.18,0.38,0.34,0.59,0.49c0.07,0.05,0.13,0.11,0.2,0.15
			c0.28,0.19,0.58,0.35,0.89,0.49c0.09,0.04,0.19,0.06,0.28,0.1c0.18,0.07,0.36,0.14,0.55,0.19l-0.01,10.37
			c-0.16,0.04-0.32,0.11-0.48,0.17c-0.12,0.04-0.25,0.08-0.37,0.13c-0.3,0.13-0.59,0.29-0.86,0.47c-0.11,0.07-0.2,0.16-0.3,0.23
			c-0.17,0.13-0.34,0.26-0.49,0.4c-0.11,0.1-0.21,0.22-0.31,0.33c-0.13,0.14-0.25,0.28-0.36,0.44c-0.09,0.12-0.17,0.25-0.25,0.38
			c-0.1,0.17-0.19,0.34-0.28,0.52c-0.06,0.13-0.12,0.26-0.18,0.4c-0.08,0.21-0.14,0.42-0.2,0.64c-0.03,0.12-0.07,0.23-0.09,0.35
			c-0.07,0.35-0.11,0.7-0.11,1.07c0,0.41,0.05,0.8,0.13,1.19l-7.26,3.64c-0.02-0.03-0.05-0.04-0.07-0.07
			c-0.2-0.22-0.41-0.41-0.64-0.6c-0.09-0.07-0.17-0.15-0.26-0.21c-0.22-0.16-0.45-0.29-0.69-0.41c-0.11-0.06-0.22-0.13-0.33-0.18
			c-0.25-0.11-0.52-0.19-0.78-0.26c-0.11-0.03-0.22-0.08-0.33-0.1C251.9,412.23,251.5,412.18,251.09,412.18z M283.93,433.8
			c-0.16,0.04-0.32,0.11-0.48,0.17c-0.12,0.04-0.25,0.08-0.37,0.13c-0.3,0.13-0.59,0.29-0.86,0.47c-0.11,0.07-0.2,0.16-0.3,0.23
			c-0.17,0.13-0.34,0.26-0.49,0.4c-0.11,0.1-0.21,0.22-0.31,0.33c-0.13,0.14-0.25,0.28-0.36,0.44c-0.09,0.12-0.17,0.25-0.25,0.38
			c-0.1,0.17-0.19,0.34-0.28,0.52c-0.06,0.13-0.12,0.26-0.18,0.4c-0.08,0.21-0.14,0.42-0.2,0.64c-0.03,0.12-0.07,0.23-0.09,0.35
			c-0.07,0.35-0.11,0.7-0.11,1.07c0,0.33,0.04,0.65,0.1,0.97c0.02,0.13,0.05,0.26,0.08,0.39c0.02,0.06,0.02,0.12,0.04,0.18
			l-7.6,4.44c-1.04-1.04-2.47-1.69-4.05-1.69c-1.59,0-3.02,0.65-4.06,1.69l-7.59-4.43c0.02-0.07,0.03-0.14,0.05-0.22
			c0.03-0.11,0.05-0.22,0.07-0.34c0.06-0.33,0.1-0.66,0.1-1c0-0.37-0.04-0.72-0.11-1.07c-0.02-0.11-0.06-0.22-0.09-0.33
			c-0.06-0.23-0.12-0.46-0.21-0.68c-0.05-0.12-0.1-0.24-0.16-0.36c-0.09-0.2-0.2-0.39-0.31-0.57c-0.07-0.11-0.14-0.22-0.22-0.33
			c-0.13-0.18-0.27-0.35-0.42-0.51c-0.08-0.09-0.16-0.18-0.24-0.26c-0.19-0.18-0.4-0.35-0.61-0.51c-0.06-0.04-0.11-0.1-0.18-0.14
			c-0.28-0.19-0.58-0.35-0.9-0.49c-0.09-0.04-0.18-0.06-0.28-0.1c-0.19-0.07-0.37-0.15-0.56-0.2v-10.36
			c0.19-0.05,0.38-0.13,0.56-0.2c0.09-0.03,0.19-0.06,0.28-0.1c0.31-0.14,0.62-0.3,0.9-0.49c0.06-0.04,0.12-0.09,0.18-0.14
			c0.22-0.16,0.42-0.32,0.61-0.51c0.09-0.08,0.16-0.18,0.24-0.26c0.15-0.16,0.29-0.33,0.42-0.51c0.08-0.11,0.15-0.21,0.22-0.33
			c0.12-0.18,0.22-0.37,0.31-0.57c0.06-0.12,0.11-0.23,0.16-0.36c0.09-0.22,0.15-0.45,0.21-0.68c0.03-0.11,0.06-0.22,0.09-0.33
			c0.07-0.35,0.11-0.7,0.11-1.07c0-0.41-0.05-0.81-0.13-1.19l7.26-3.63c0.02,0.03,0.05,0.05,0.08,0.07c0.2,0.22,0.41,0.41,0.64,0.59
			c0.09,0.07,0.17,0.15,0.26,0.22c0.22,0.16,0.45,0.29,0.69,0.41c0.11,0.06,0.22,0.13,0.33,0.18c0.25,0.11,0.52,0.19,0.78,0.26
			c0.11,0.03,0.22,0.08,0.33,0.1c0.39,0.08,0.78,0.13,1.19,0.13c1.58,0,3.02-0.65,4.05-1.69l7.59,4.43
			c-0.02,0.07-0.03,0.14-0.05,0.22c-0.03,0.11-0.05,0.22-0.07,0.34c-0.06,0.33-0.1,0.66-0.1,1c0,0.37,0.04,0.72,0.11,1.07
			c0.02,0.12,0.06,0.23,0.09,0.34c0.06,0.23,0.12,0.45,0.21,0.66c0.05,0.13,0.11,0.25,0.17,0.37c0.09,0.19,0.19,0.37,0.3,0.55
			c0.07,0.12,0.15,0.23,0.23,0.35c0.12,0.17,0.26,0.33,0.4,0.48c0.09,0.1,0.17,0.2,0.27,0.29c0.18,0.17,0.37,0.32,0.57,0.47
			c0.08,0.06,0.14,0.12,0.22,0.17c0.28,0.19,0.58,0.35,0.89,0.48c0.09,0.04,0.19,0.07,0.29,0.1c0.18,0.07,0.36,0.14,0.55,0.19
			L283.93,433.8z"/>
	</g>
</g>
<g>
	<path d="M84.46,422.25c-0.43-0.33-1-0.36-1.45-0.08c-0.45,0.28-0.7,0.81-0.62,1.35l3.49,23.72c0.11,0.74,0.78,1.25,1.49,1.15
		l22.98-3.38c0.52-0.08,0.95-0.47,1.07-1c0.13-0.53-0.07-1.09-0.5-1.42L84.46,422.25z M88.27,445.52l-2.82-19.15l21.38,16.42
		L88.27,445.52z"/>
	<path d="M142.83,365.29l-7.76-5.96c-0.58-0.45-1.4-0.33-1.83,0.27l-32.99,45.89c-0.11,0.15-0.18,0.31-0.22,0.49l-2.64,11.68
		l-19.77-15.19l2.61-3.63c0.43-0.6,0.3-1.44-0.28-1.89s-1.4-0.33-1.83,0.27l-2.61,3.63l-5.95-4.57l-3.93-26.67
		c-0.11-0.74-0.78-1.25-1.49-1.15l-14.84,2.19c-0.72,0.11-1.21,0.79-1.1,1.53L63.87,478.6c0.11,0.74,0.78,1.25,1.49,1.15l14.84-2.19
		c0.72-0.11,1.21-0.79,1.1-1.53l-2.15-14.61l59.45-8.75l4.17,3.2c0.29,0.22,0.64,0.31,0.97,0.26c0.33-0.05,0.64-0.23,0.86-0.53
		c0.43-0.6,0.3-1.44-0.28-1.89l-44.65-34.3l10.06-5.98c0.15-0.09,0.29-0.21,0.39-0.36l32.99-45.89c0.21-0.29,0.29-0.65,0.24-1
		C143.3,365.82,143.11,365.5,142.83,365.29z M78.52,475.08l-12.25,1.8l-0.35-2.38l2.22-0.33c0.72-0.11,1.21-0.79,1.1-1.53
		c-0.11-0.74-0.78-1.25-1.49-1.15l-2.22,0.33l-0.62-4.21l2.22-0.33c0.72-0.11,1.21-0.79,1.1-1.53c-0.11-0.74-0.78-1.25-1.49-1.15
		l-2.22,0.33l-0.62-4.21l2.22-0.33c0.72-0.11,1.21-0.79,1.1-1.53c-0.11-0.74-0.78-1.25-1.49-1.15l-2.22,0.33l-0.62-4.21l2.22-0.33
		c0.72-0.11,1.21-0.79,1.1-1.53s-0.78-1.25-1.49-1.15l-2.22,0.33l-0.62-4.21l2.22-0.33c0.72-0.11,1.21-0.79,1.1-1.53
		c-0.11-0.74-0.78-1.25-1.49-1.15l-2.22,0.33l-0.62-4.21l2.22-0.33c0.72-0.11,1.21-0.79,1.1-1.53c-0.11-0.74-0.78-1.25-1.49-1.15
		l-2.22,0.33l-0.62-4.21l2.22-0.33c0.72-0.11,1.21-0.79,1.1-1.53c-0.11-0.74-0.78-1.25-1.49-1.15l-2.22,0.33l-0.62-4.21l2.22-0.33
		c0.72-0.11,1.21-0.79,1.1-1.53c-0.11-0.74-0.78-1.25-1.49-1.15l-2.22,0.33l-0.62-4.21l2.22-0.33c0.72-0.11,1.21-0.79,1.1-1.53
		c-0.11-0.74-0.78-1.25-1.49-1.15l-2.22,0.33l-0.62-4.21l2.22-0.33c0.72-0.11,1.21-0.79,1.1-1.53c-0.11-0.74-0.78-1.25-1.49-1.15
		l-2.22,0.33l-0.62-4.21l2.22-0.33c0.72-0.11,1.21-0.79,1.1-1.53c-0.11-0.74-0.78-1.25-1.49-1.15l-2.22,0.33l-0.62-4.21L57,398.5
		c0.72-0.11,1.21-0.79,1.1-1.53c-0.11-0.74-0.78-1.25-1.49-1.15l-2.22,0.33l-0.62-4.21l2.22-0.33c0.72-0.11,1.21-0.79,1.1-1.53
		c-0.11-0.74-0.78-1.25-1.49-1.15l-2.22,0.33l-0.62-4.21l2.22-0.33c0.72-0.11,1.21-0.79,1.1-1.53c-0.11-0.74-0.78-1.25-1.49-1.15
		l-2.22,0.33l-0.62-4.21l2.22-0.33c0.72-0.11,1.21-0.79,1.1-1.53c-0.11-0.74-0.78-1.25-1.49-1.15l-2.22,0.33l-0.35-2.38l12.25-1.8
		L78.52,475.08L78.52,475.08z M78.76,458.75l-8.64-58.68l7.26,5.58l-3.12,4.34c-0.43,0.6-0.3,1.44,0.28,1.89
		c0.29,0.22,0.64,0.31,0.97,0.26c0.33-0.05,0.64-0.23,0.86-0.53l3.12-4.34l3.32,2.55l-3.12,4.34c-0.43,0.6-0.3,1.44,0.28,1.89
		c0.29,0.22,0.64,0.31,0.97,0.26c0.33-0.05,0.64-0.23,0.86-0.53l3.12-4.34l3.32,2.55l-3.12,4.34c-0.43,0.6-0.3,1.44,0.28,1.89
		c0.29,0.22,0.64,0.31,0.97,0.26c0.33-0.05,0.64-0.23,0.86-0.53l3.12-4.34l3.32,2.55l-3.12,4.34c-0.43,0.6-0.3,1.44,0.28,1.89
		c0.29,0.22,0.64,0.31,0.97,0.26c0.33-0.05,0.64-0.23,0.86-0.53l3.12-4.34l3.32,2.55l-3.12,4.34c-0.43,0.6-0.3,1.44,0.28,1.89
		c0.29,0.22,0.64,0.31,0.97,0.26c0.33-0.05,0.64-0.23,0.86-0.53l3.12-4.34l3.32,2.55l-3.12,4.34c-0.43,0.6-0.3,1.44,0.28,1.89
		c0.29,0.22,0.64,0.31,0.97,0.26c0.33-0.05,0.64-0.23,0.86-0.53l3.12-4.34l3.32,2.55l-3.12,4.34c-0.43,0.6-0.3,1.44,0.28,1.89
		c0.29,0.22,0.64,0.31,0.97,0.26c0.33-0.05,0.64-0.23,0.86-0.53l3.12-4.34l3.32,2.55l-3.12,4.34c-0.43,0.6-0.3,1.44,0.28,1.89
		c0.29,0.22,0.64,0.31,0.97,0.26c0.33-0.05,0.64-0.23,0.86-0.53l3.12-4.34l3.32,2.55l-3.12,4.34c-0.43,0.6-0.3,1.44,0.28,1.89
		c0.29,0.22,0.64,0.31,0.97,0.26c0.33-0.05,0.64-0.23,0.86-0.53l3.12-4.34l3.32,2.55l-3.12,4.34c-0.43,0.6-0.3,1.44,0.28,1.89
		c0.29,0.22,0.64,0.31,0.97,0.26c0.33-0.05,0.64-0.23,0.86-0.53l3.12-4.34l7.26,5.58L78.76,458.75L78.76,458.75z M107.02,409.01
		l27.3-37.97l1.77,1.36l-27.3,37.97L107.02,409.01z M104.91,407.39l-1.77-1.36l27.3-37.97l1.77,1.36L104.91,407.39z M102.13,408.61
		l4.55,3.5l-6.17,3.67L102.13,408.61z M137.64,370.24l-5.65-4.34l2.59-3.6l5.65,4.34L137.64,370.24z"/>
	<path d="M147.96,456.5c-0.58-0.45-1.4-0.33-1.83,0.27c-0.43,0.6-0.3,1.44,0.28,1.89l4.6,3.54c0.29,0.22,0.64,0.31,0.97,0.26
		c0.33-0.05,0.64-0.23,0.86-0.53c0.43-0.6,0.3-1.44-0.28-1.89L147.96,456.5z"/>
	<path d="M156.21,462.84c-0.58-0.45-1.4-0.33-1.83,0.27c-0.43,0.6-0.3,1.44,0.28,1.89l0.09,0.07c0.29,0.22,0.64,0.31,0.97,0.26
		c0.33-0.05,0.64-0.23,0.86-0.53c0.43-0.6,0.3-1.44-0.28-1.89L156.21,462.84z"/>
	<path d="M100.27,370.31c0.33-0.05,0.64-0.23,0.86-0.53l0.18-0.24c0.43-0.6,0.3-1.44-0.28-1.89c-0.58-0.45-1.4-0.33-1.83,0.27
		l-0.18,0.24c-0.43,0.6-0.3,1.44,0.28,1.89C99.59,370.28,99.94,370.36,100.27,370.31z"/>
	<path d="M94.2,378.76c0.33-0.05,0.64-0.23,0.86-0.53l3.39-4.71c0.43-0.6,0.3-1.44-0.28-1.89c-0.58-0.45-1.4-0.33-1.83,0.27
		l-3.39,4.71c-0.43,0.6-0.3,1.44,0.28,1.89C93.52,378.72,93.87,378.8,94.2,378.76z"/>
	<path d="M88.13,387.2c0.33-0.05,0.64-0.23,0.86-0.53l3.39-4.71c0.43-0.6,0.3-1.44-0.28-1.89c-0.58-0.45-1.4-0.33-1.83,0.27
		l-3.39,4.71c-0.43,0.6-0.3,1.44,0.28,1.89C87.45,387.17,87.8,387.25,88.13,387.2z"/>
	<path d="M82.06,395.64c0.33-0.05,0.64-0.23,0.86-0.53l3.39-4.71c0.43-0.6,0.3-1.44-0.28-1.89s-1.4-0.33-1.83,0.27l-3.39,4.71
		c-0.43,0.6-0.3,1.44,0.28,1.89C81.38,395.61,81.73,395.69,82.06,395.64z"/>
</g>
<g>
	<g>
		<g>
			<path d="M464.66,416.76l1.42-2.67l-16.12-8.56c-2.26-5.61-6.39-10.23-11.71-13.06c-5.32-2.83-11.47-3.66-17.38-2.39l-16.12-8.56
				l-1.42,2.67l-10.67-5.67l-39.67,74.67l2.67,1.42l38.25-72l8,4.25l-1.42,2.67l10.04,5.33c-2.89,2.23-5.29,5.03-7,8.25
				c-0.45,0.85-0.85,1.79-1.22,2.77l-8.2-4.36l-1.42,2.67l-5.33-2.83l-29.04,54.67l2.67,1.42l27.62-52l2.67,1.42l-1.42,2.67
				l10.7,5.69c0.01,3.21,0.61,6.43,1.79,9.41l-0.74,1.4l-2.67-1.42l-1.42,2.67l2.67,1.42l-1.42,2.67l-2.67-1.42l-1.42,2.67
				l2.67,1.42l-1.42,2.67l-2.67-1.42l-1.42,2.67l2.67,1.42l-2.83,5.33l5.33,2.83l-12.04,22.67l2.67,1.42l12.04-22.67l13.33,7.08
				l-12.04,22.67l2.67,1.42l12.04-22.67l5.33,2.83l2.83-5.33l2.67,1.42l1.42-2.67l-2.67-1.42l1.42-2.67l2.67,1.42l1.42-2.67
				l-2.67-1.42l1.42-2.67l2.67,1.42l1.42-2.67l-2.67-1.42l0.74-1.4c3.13-0.69,6.14-2,8.8-3.79l10.7,5.69l1.42-2.67l2.67,1.42
				l-5.67,10.67l2.67,1.42l7.08-13.33l-5.33-2.83l1.42-2.67l-8.2-4.36c0.61-0.86,1.16-1.71,1.62-2.56
				c1.71-3.22,2.69-6.78,2.92-10.42l10.04,5.33l1.42-2.67l8,4.25l-38.25,72l2.67,1.42l39.67-74.67L464.66,416.76z M448.66,408.26
				l2.67,1.42l-1.42,2.67l-2.67-1.42L448.66,408.26z M416.66,391.26l2.67,1.42l-1.42,2.67l-2.67-1.42L416.66,391.26z M404.58,388.26
				l1.42-2.67l8,4.25l-1.42,2.67L404.58,388.26z M401.95,412.51l-8-4.25l1.42-2.67l8,4.25L401.95,412.51z M419.79,456.18l-24-12.75
				l1.42-2.67l24,12.75L419.79,456.18z M425.45,445.51l-2.67-1.42l-1.42,2.67l2.67,1.42l-1.42,2.67l-24-12.75l1.42-2.67l18.67,9.92
				l1.42-2.67l-18.67-9.92l1.42-2.67l24,12.75L425.45,445.51z M439.29,432.35l-2.67-1.42l1.42-2.67l2.67,1.42L439.29,432.35z
				 M444.56,428.31l-7.78-4.13l-1.42,2.67l-8-4.25l-1.42,2.67l8,4.25l-1.42,2.67l4.91,2.61c-2.18,1.24-4.57,2.12-7.03,2.59
				l-0.71,0.14l-1.42,2.67l-10.67-5.67l7.18-13.52c2.61,0.62,5.42-0.54,6.73-3.02c1.56-2.94,0.44-6.6-2.5-8.17
				c-2.94-1.56-6.6-0.44-8.17,2.5c-1.32,2.48-0.71,5.45,1.27,7.27l-7.18,13.52l-10.67-5.67l1.42-2.67l-0.29-0.67
				c-0.99-2.3-1.6-4.78-1.79-7.27l4.91,2.61l1.42-2.67l8,4.25l1.42-2.67l-8-4.25l1.42-2.67l-7.78-4.13c0.36-1,0.75-1.95,1.19-2.79
				c1.72-3.24,4.24-6.02,7.3-8.09l5.66,3.01l1.42-2.67l8,4.25l1.42-2.67l-8-4.25l0.69-1.29c4.85-0.77,9.81,0.03,14.15,2.34
				c4.34,2.3,7.78,5.97,9.85,10.41l-0.69,1.29l-8-4.25l-1.42,2.67l8,4.25l-1.42,2.67l5.66,3.01c0,3.69-0.89,7.33-2.62,10.58
				C445.76,426.6,445.19,427.45,444.56,428.31z M424.79,417.8c-1.47-0.78-2.03-2.61-1.25-4.08c0.78-1.47,2.61-2.03,4.08-1.25
				c1.47,0.78,2.03,2.61,1.25,4.08C428.09,418.02,426.25,418.58,424.79,417.8z M404.62,413.93l1.42-2.67l2.67,1.42l-1.42,2.67
				L404.62,413.93z M451.37,435.35l-1.42,2.67l-8-4.25l1.42-2.67L451.37,435.35z M460.58,418.01l-8-4.25l1.42-2.67l8,4.25
				L460.58,418.01z"/>
			<rect x="417.37" y="472.71" transform="matrix(0.4691 -0.8831 0.8831 0.4691 -185.607 639.6727)" width="43.78" height="3.02"/>
		</g>
	</g>
</g>
<g>
	<g>
		<g>
			<path d="M409.94,218.73l-14.92-8.61c-0.6-0.35-1.34-0.34-1.93,0.01l-15.12,8.95c-0.91,0.54-1.21,1.71-0.67,2.62
				c0.36,0.6,0.99,0.94,1.65,0.94c0.33,0,0.67-0.09,0.97-0.27l14.15-8.38l13.95,8.05c0.91,0.53,2.09,0.21,2.62-0.7
				C411.17,220.43,410.86,219.26,409.94,218.73z"/>
			<path d="M469.46,213.33l-24.08-13.9c0.11-0.54,0.17-1.1,0.17-1.67c0-4.75-3.86-8.61-8.61-8.61s-8.61,3.86-8.61,8.61
				s3.86,8.61,8.61,8.61c2.8,0,5.27-1.37,6.85-3.45l22.8,13.16v26.5l-22.95,13.25l-22.95-13.25v-27.61c0-0.66-0.36-1.22-0.87-1.56
				c-0.04-0.03-0.08-0.07-0.13-0.1l-0.13-0.07c-0.02-0.01-0.04-0.03-0.06-0.04l-24.68-14.25c-0.59-0.34-1.32-0.34-1.91,0
				l-24.87,14.36c-0.59,0.34-0.96,0.97-0.96,1.66v28.71c0,0.68,0.36,1.32,0.96,1.66l23.93,13.81v28.55c0,0.68,0.36,1.32,0.96,1.66
				l24.87,14.36c0.3,0.17,0.63,0.26,0.96,0.26c0.33,0,0.66-0.09,0.96-0.26l23.12-13.35c1.51,1.3,3.45,2.12,5.59,2.12
				c4.75,0,8.61-3.86,8.61-8.61s-3.86-8.61-8.61-8.61s-8.61,3.86-8.61,8.61c0,1.21,0.26,2.36,0.71,3.41l-21.77,12.57l-22.95-13.25
				v-27.47l22.95-13.25l23.93,13.81c0.3,0.17,0.63,0.26,0.96,0.26c0.33,0,0.66-0.09,0.96-0.26l24.87-14.36
				c0.59-0.34,0.96-0.97,0.96-1.66v-28.71C470.42,214.31,470.05,213.67,469.46,213.33z M436.94,202.55c-2.64,0-4.79-2.15-4.79-4.79
				c0-2.64,2.15-4.79,4.79-4.79s4.79,2.15,4.79,4.79C441.73,200.4,439.58,202.55,436.94,202.55z M448.42,279.12
				c2.64,0,4.79,2.15,4.79,4.79s-2.15,4.79-4.79,4.79c-1.1,0-2.11-0.39-2.92-1.02c-0.01-0.31-0.07-0.61-0.23-0.9
				c-0.27-0.47-0.71-0.77-1.2-0.9c-0.28-0.6-0.44-1.27-0.44-1.98C443.64,281.26,445.79,279.12,448.42,279.12z M393.87,255.85
				l-22.95-13.25v-26.5l22.95-13.25l22.95,13.25l0,26.5L393.87,255.85z"/>
		</g>
	</g>
</g>
<g>
	<path d="M423.4,110.62c0.07-0.01,0.14-0.03,0.2-0.06c7.12-2.97,11.22-10.63,9.74-18.2c-0.11-0.57-0.66-0.94-1.24-0.83
		c-0.57,0.11-0.94,0.67-0.83,1.24c1.29,6.6-2.28,13.27-8.48,15.86c-0.54,0.22-0.79,0.84-0.57,1.38
		C422.42,110.46,422.92,110.72,423.4,110.62z"/>
	<path d="M428.79,78.45c-0.48-0.33-1.14-0.2-1.46,0.29c-0.33,0.48-0.2,1.14,0.29,1.46c4.09,2.75,6.86,6.93,7.8,11.76
		c1.95,9.98-4.59,19.69-14.57,21.63c-4.98,0.97-10.2-0.18-14.33-3.16c-0.47-0.34-1.13-0.23-1.47,0.24
		c-0.34,0.47-0.23,1.13,0.24,1.47c4.6,3.32,10.42,4.6,15.97,3.52c11.12-2.17,18.4-12.98,16.23-24.11
		C436.43,86.17,433.35,81.52,428.79,78.45z"/>
	<path d="M423.53,71.51l-1.88-9.63c1.77-0.43,2.91-2.18,2.56-3.98c-0.36-1.85-2.16-3.07-4.02-2.71l-20.7,4.04
		c-1.85,0.36-3.07,2.16-2.71,4.02c0.35,1.8,2.07,3,3.87,2.73l1.88,9.63c-7.62,5.67-11.36,15.26-9.53,24.62
		c2.62,13.4,15.65,22.18,29.05,19.56c13.4-2.62,22.18-15.65,19.56-29.05C439.79,81.38,432.73,73.9,423.53,71.51z M398.86,62.85
		c-0.14-0.71,0.33-1.41,1.04-1.55l20.7-4.04c0.71-0.14,1.41,0.33,1.55,1.04c0.14,0.71-0.33,1.41-1.04,1.55l-20.7,4.04
		C399.69,64.03,399,63.56,398.86,62.85z M421.65,117.72c-12.26,2.39-24.19-5.64-26.58-17.9c-1.71-8.77,1.91-17.76,9.23-22.9
		c0.35-0.25,0.52-0.68,0.42-1.09l-2-10.25l16.86-3.29l2.01,10.28c0.08,0.41,0.39,0.73,0.8,0.83c8.71,2.01,15.45,8.97,17.16,17.75
		C441.95,103.41,433.92,115.33,421.65,117.72z"/>
	<path d="M406.62,35.81l1.2-0.23l3.85,19.74c0.11,0.57,0.66,0.94,1.24,0.83s0.94-0.67,0.83-1.24l-3.85-19.74l21.31-4.16l0.81,4.14
		c0.11,0.57,0.66,0.94,1.24,0.83c0.57-0.11,0.94-0.67,0.83-1.24l-0.81-4.14l1.2-0.23c1.85-0.36,3.07-2.16,2.71-4.02
		c-0.36-1.85-2.16-3.07-4.02-2.71l-27.85,5.43c-1.85,0.36-3.07,2.16-2.71,4.02C402.97,34.95,404.77,36.17,406.62,35.81z
		 M405.72,31.15l27.85-5.43c0.71-0.14,1.41,0.33,1.55,1.04c0.14,0.71-0.33,1.41-1.04,1.55l-27.85,5.43
		c-0.71,0.14-1.41-0.33-1.55-1.04S405,31.29,405.72,31.15z"/>
	<path d="M472.77,93.99l-22.58-35.57l-3.45-17.67l0.55-0.11c1.85-0.36,3.07-2.16,2.71-4.02c-0.36-1.85-2.16-3.07-4.02-2.71
		l-17.3,3.38c-1.85,0.36-3.07,2.16-2.71,4.02c0.36,1.85,2.16,3.07,4.02,2.71l0.55-0.11l3.45,17.67l-2.09,11.49
		c-0.1,0.57,0.28,1.12,0.85,1.23c0.57,0.1,1.12-0.28,1.23-0.85l2-10.97l12.73-2.48L471,95.12c0.96,1.51,1.11,3.33,0.4,4.97
		c-0.71,1.65-2.13,2.79-3.89,3.14l-26.36,5.14c-0.57,0.11-0.94,0.67-0.83,1.24s0.66,0.94,1.24,0.83l26.36-5.14
		c2.42-0.47,4.45-2.11,5.42-4.37C474.3,98.66,474.1,96.07,472.77,93.99z M428.03,40.9c-0.14-0.71,0.33-1.41,1.04-1.55l17.3-3.38
		c0.71-0.14,1.41,0.33,1.55,1.04s-0.33,1.41-1.04,1.55l-17.3,3.38C428.87,42.08,428.17,41.61,428.03,40.9z M444.67,41.14l3.29,16.84
		l-12.08,2.36L432.6,43.5L444.67,41.14z"/>
	<path d="M450.38,70.51l17.05,26.86c0.24,0.38,0.68,0.55,1.09,0.47c0.13-0.02,0.25-0.07,0.36-0.14c0.49-0.31,0.64-0.96,0.33-1.45
		l-17.05-26.86c-0.31-0.49-0.96-0.64-1.45-0.32C450.22,69.37,450.07,70.02,450.38,70.51z"/>
	<path d="M449.22,64.74c-0.31-0.49-0.96-0.64-1.45-0.32c-0.49,0.31-0.64,0.96-0.32,1.45l1.22,1.92c0.24,0.38,0.68,0.55,1.09,0.47
		c0.13-0.02,0.25-0.07,0.36-0.14c0.49-0.31,0.64-0.96,0.32-1.45L449.22,64.74z"/>
	<path d="M449.05,76.28l11.76,18.53c0.24,0.38,0.68,0.55,1.09,0.47c0.13-0.02,0.25-0.07,0.36-0.14c0.49-0.31,0.64-0.96,0.32-1.45
		l-11.76-18.53c-0.31-0.49-0.96-0.64-1.45-0.32C448.89,75.14,448.74,75.79,449.05,76.28z"/>
	<path d="M445.63,57.08c0.57-0.11,0.94-0.67,0.83-1.24l-2.42-12.41c-0.11-0.57-0.66-0.94-1.24-0.83c-0.57,0.11-0.94,0.67-0.83,1.24
		l2.42,12.41C444.51,56.82,445.06,57.19,445.63,57.08z"/>
	<path d="M411.92,38.42l1.82,9.31c0.11,0.57,0.66,0.94,1.24,0.83s0.94-0.67,0.83-1.24l-1.82-9.31c-0.11-0.57-0.66-0.94-1.24-0.83
		S411.81,37.85,411.92,38.42z"/>
	<path d="M418.97,71.8c0.57-0.11,0.94-0.67,0.83-1.24l-1.17-6c-0.11-0.57-0.66-0.94-1.24-0.83c-0.57,0.11-0.94,0.67-0.83,1.24
		l1.17,6C417.85,71.54,418.4,71.92,418.97,71.8z"/>
	<path d="M406.35,74.27c0.57-0.11,0.94-0.67,0.83-1.24l-0.36-1.86c-0.11-0.57-0.66-0.94-1.24-0.83c-0.57,0.11-0.94,0.67-0.83,1.24
		l0.36,1.86C405.23,74.01,405.78,74.38,406.35,74.27z"/>
	<path d="M405.41,69.41c0.27-0.05,0.52-0.22,0.67-0.45c0.16-0.23,0.21-0.52,0.16-0.79c-0.05-0.27-0.22-0.52-0.45-0.67
		c-0.23-0.15-0.52-0.21-0.79-0.16c-0.27,0.05-0.52,0.22-0.67,0.44c-0.15,0.23-0.21,0.52-0.16,0.79s0.21,0.52,0.44,0.67
		C404.84,69.4,405.13,69.46,405.41,69.41z"/>
</g>
</svg>
