<?xml version="1.0" encoding="utf-8"?>
<!-- Generator: Adobe Illustrator 24.0.1, SVG Export Plug-In . SVG Version: 6.00 Build 0)  -->
<svg version="1.1" id="Слой_1" xmlns="http://www.w3.org/2000/svg" xmlns:xlink="http://www.w3.org/1999/xlink" x="0px" y="0px"
	 viewBox="0 0 512 512" enable-background="new 0 0 512 512" xml:space="preserve">
<g>
	<rect width="512" height="512"/>
</g>
<g>
	<g>
		<path fill="#FFFFFF" d="M116.7,81l-16.9,3.5l-7.5-36c-0.8-4-3.3-7.7-6.8-9.9l-10.4-6.8L81,23c0.6-1,0.4-2.3-0.6-2.9l-12.8-8.4
			c-1-0.6-2.3-0.4-2.9,0.6l-5.8,8.9l-5.6-3.6c-1-0.6-2.3-0.4-2.9,0.6L44,27.9c-0.3,0.5-0.4,1-0.3,1.6s0.4,1,0.9,1.3l5.6,3.6
			l-9.3,14.2c-0.6,1-0.4,2.3,0.6,2.9l2,1.3l-7.1,10.8c-0.6,1-0.4,2.3,0.6,2.9l5.4,3.6c0.5,0.3,1,0.4,1.6,0.3s1-0.4,1.3-0.9l7.1-10.8
			l2,1.3c0.5,0.3,1,0.4,1.6,0.3s1-0.4,1.3-0.9l9.3-14.2l6.4,4.2c2.6,1.7,4.3,4.3,4.9,7.3l6.4,31.1l-40.8,8.5L42.1,89l12.9-2.7
			c1.1-0.2,1.8-1.3,1.6-2.5L55,76.3c-0.2-1.1-1.3-1.8-2.5-1.6l-29.6,6.1c-1.1,0.2-1.9,1.3-1.6,2.5l1.6,7.6c0.2,1.1,1.3,1.8,2.5,1.6
			L38,89.8l1.5,7.1l-21,4.4c-1.1,0.2-1.9,1.3-1.6,2.5l3.3,16.2c0.2,1.1,1.3,1.8,2.5,1.6l98.3-20.4c1.1-0.2,1.8-1.3,1.6-2.5
			l-3.4-16.2C119,81.4,117.9,80.7,116.7,81z M67.1,16.3l9.3,6.1l-4.7,7.1l-9.3-6.1L67.1,16.3z M42.9,65.4L41,64.1l6-9.1l1.9,1.3
			L42.9,65.4z M54.8,55.3l-2-1.3l0,0l-5.4-3.6l0,0l-2-1.3l8.2-12.4l9.3,6.1L54.8,55.3z M75.2,45.8L48.7,28.4l4.1-6.3l30.5,19.9
			c2.5,1.7,4.3,4.3,5,7.3l7.5,36l-7.3,1.5l-6.4-31.1C81.1,51.7,78.7,48.1,75.2,45.8z M26.5,88l-0.7-3.5l25.5-5.3l0.7,3.5L26.5,88z
			 M118.1,97.6l-94.2,19.5L21.3,105l94.2-19.5L118.1,97.6L118.1,97.6z"/>
	</g>
</g>
<g>
	<g>
		<path fill="#FFFFFF" d="M182.9,168.6c0-5.6-5.9-10.6-16.2-13.7c2.4-10.5,1.1-18.1-3.8-20.9c-4.8-2.8-12.1-0.2-20,7.2
			c-7.9-7.4-15.2-10-20-7.2c-2.2,1.3-3.7,3.6-4.4,6.7c-2.2,0.4-3.8,2.3-3.8,4.6c0,2.2,1.5,4,3.5,4.5c0.2,1.6,0.5,3.4,0.9,5.2
			c-10.3,3.2-16.2,8.1-16.2,13.7c0,5.6,5.9,10.6,16.2,13.7c-2.4,10.5-1.1,18.1,3.8,20.9c1.3,0.7,2.7,1.1,4.3,1.1
			c1.6,0,3.5-0.4,5.4-1.2c0.8,0.9,2,1.4,3.3,1.4c2.6,0,4.6-2.1,4.6-4.6c0-0.5-0.1-1.1-0.3-1.5c0.9-0.7,1.8-1.5,2.7-2.3
			c5.8,5.4,11.3,8.3,15.7,8.3c1.6,0,3-0.4,4.3-1.1c4.8-2.8,6.2-10.4,3.8-20.9c2.6-0.8,4.9-1.7,6.9-2.7c0.8,0.7,1.9,1.2,3.1,1.2
			c2.6,0,4.6-2.1,4.6-4.6c0-0.7-0.2-1.4-0.5-2C182.2,172.4,182.9,170.5,182.9,168.6z M161.5,136.4c3.6,2.1,4.5,8.8,2.5,17.8
			c-3.6-0.9-7.5-1.6-11.6-2c-2.4-3.4-4.9-6.4-7.5-9C151.6,136.9,157.9,134.3,161.5,136.4z M128.2,177.1c1,1.7,2,3.4,3.1,5
			c-3.1-0.4-6.1-1-8.8-1.7c0.8-2.8,1.8-5.6,3-8.5C126.3,173.7,127.3,175.4,128.2,177.1z M122.5,156.8c2.8-0.7,5.7-1.3,8.8-1.7
			c-1.1,1.6-2.1,3.3-3.1,5c-1,1.7-1.9,3.4-2.8,5.2C124.2,162.4,123.2,159.6,122.5,156.8z M130.6,175.7c-1.3-2.3-2.6-4.7-3.7-7.1
			c1.1-2.4,2.4-4.8,3.7-7.1c1.4-2.4,2.8-4.6,4.3-6.8c5.2-0.4,10.8-0.4,16,0c1.5,2.1,2.9,4.4,4.3,6.8c1.4,2.3,2.6,4.7,3.7,7.1
			c-1.1,2.4-2.4,4.8-3.7,7.1c-1.4,2.4-2.8,4.6-4.3,6.8c-5.2,0.4-10.8,0.4-16,0C133.4,180.4,132,178.1,130.6,175.7z M157.6,177.1
			c1-1.7,1.9-3.4,2.8-5.2c1.2,2.9,2.2,5.7,3,8.5c-2.8,0.7-5.7,1.3-8.8,1.7C155.6,180.5,156.6,178.8,157.6,177.1z M160.4,165.3
			c-0.9-1.7-1.8-3.5-2.8-5.2c-1-1.7-2-3.4-3.1-5c3.1,0.4,6.1,1,8.8,1.7C162.6,159.6,161.6,162.4,160.4,165.3z M142.9,145
			c2,2,4,4.3,5.9,6.8c-3.9-0.2-7.9-0.2-11.7,0C138.9,149.3,140.9,147.1,142.9,145z M124.3,136.4c3.6-2.1,9.9,0.5,16.6,6.7
			c-2.6,2.6-5.1,5.7-7.5,9c-4.1,0.4-8,1.1-11.6,2c-0.4-1.6-0.6-3.1-0.8-4.6c1.7-0.7,3-2.4,3-4.3c0-1.9-1.1-3.5-2.7-4.2
			C121.8,138.8,122.8,137.2,124.3,136.4z M117.5,145.2c0-1,0.8-1.9,1.9-1.9s1.9,0.8,1.9,1.9c0,1-0.8,1.9-1.9,1.9
			S117.5,146.3,117.5,145.2z M105.7,168.6c0-4.1,5.4-8.3,14.2-11.1c1,3.6,2.3,7.3,4.1,11.1c-1.7,3.8-3.1,7.5-4.1,11.1
			C111.1,176.9,105.7,172.8,105.7,168.6z M135.9,201.8c-1,0-1.9-0.8-1.9-1.9c0-1,0.8-1.9,1.9-1.9c1,0,1.9,0.8,1.9,1.9
			C137.8,201,136.9,201.8,135.9,201.8z M138.6,196.2c-0.8-0.6-1.7-0.9-2.7-0.9c-2.6,0-4.6,2.1-4.6,4.6c0,0.3,0,0.5,0.1,0.8
			c-2.2,0.9-4.9,1.4-7,0.2c-3.6-2.1-4.5-8.8-2.5-17.8c3.6,0.9,7.5,1.6,11.6,2c2.4,3.4,4.9,6.4,7.5,9
			C140.2,194.9,139.4,195.6,138.6,196.2z M142.9,192.2c-2-2-4-4.3-5.9-6.8c1.9,0.1,3.9,0.2,5.9,0.2s3.9-0.1,5.9-0.2
			C146.9,187.9,144.9,190.2,142.9,192.2z M161.5,200.9c-3.6,2.1-9.9-0.5-16.6-6.7c2.6-2.6,5.1-5.7,7.5-9c4.1-0.4,8-1.1,11.6-2
			C166.1,192.1,165.1,198.8,161.5,200.9z M176.7,178.1c-1,0-1.9-0.8-1.9-1.9c0-1,0.8-1.9,1.9-1.9c1,0,1.9,0.8,1.9,1.9
			S177.7,178.1,176.7,178.1z M178.9,172.1c-0.7-0.4-1.4-0.6-2.2-0.6c-2.6,0-4.6,2.1-4.6,4.6c0,0.4,0,0.7,0.1,1.1
			c-1.8,0.9-3.9,1.7-6.2,2.4c-1-3.6-2.4-7.3-4.1-11.1c1.7-3.8,3.1-7.5,4.1-11.1c8.8,2.7,14.1,6.9,14.1,11.1
			C180.2,169.8,179.8,171,178.9,172.1z"/>
	</g>
</g>
<g>
	<g>
		<g>
			<path fill="#FFFFFF" d="M268.3,86.3c-0.6-0.7-1.9-0.7-2.5,0l-11.7,13.3c-0.4,0.5-0.5,1.2-0.3,1.8s0.9,1,1.5,1h23.3
				c0.6,0,1.3-0.4,1.5-1c0.3-0.6,0.2-1.3-0.3-1.8L268.3,86.3z M259,99.1l8-9.1l8,9.1H259z"/>
			<path fill="#FFFFFF" d="M308.6,66.8c-0.3-0.9-1.3-1.3-2.1-1l-53.8,19.6c1.7-2.2,2.7-5,2.7-8c0-7.3-6-13.3-13.3-13.3
				s-13.3,6-13.3,13.3c0,6.3,4.4,11.6,10.3,13l-5.8,2.1c-0.9,0.3-1.3,1.3-1,2.1c0.3,0.7,0.9,1.1,1.6,1.1c0.2,0,0.4,0,0.6-0.1
				L307.6,69C308.5,68.7,308.9,67.7,308.6,66.8z M232,77.4c0-5.5,4.5-10,10-10s10,4.5,10,10s-4.5,10-10,10S232,82.9,232,77.4z"/>
			<path fill="#FFFFFF" d="M290.4,49.1c6.4,0,11.7-5.2,11.7-11.7s-5.2-11.7-11.7-11.7c-6.4,0-11.7,5.2-11.7,11.7
				C278.7,43.8,283.9,49.1,290.4,49.1z M290.4,29.1c4.6,0,8.3,3.7,8.3,8.3c0,4.6-3.7,8.3-8.3,8.3c-4.6,0-8.3-3.7-8.3-8.3
				C282,32.8,285.8,29.1,290.4,29.1z"/>
		</g>
	</g>
</g>
<path fill="#FFFFFF" d="M306.7,240.1l-84.9-38.7c-0.8-0.4-1.7,0-2.1,0.8s0,1.7,0.8,2.1l27.1,12.3l-1.3,2.9
	c-8.2-2.8-17.4,1.1-21.2,9.4l-18.2,39.9l-0.7-3.3c-0.2-0.8-1-1.4-1.9-1.1s-1.4,1.1-1.2,1.9l1.7,7.7v0c0,0,0,0.1,0,0.1c0,0,0,0,0,0
	c0,0,0,0.1,0.1,0.2c0,0,0,0,0,0c0,0,0.1,0.1,0.1,0.1c0,0,0,0,0,0c0,0,0.1,0.1,0.1,0.1c0,0,0,0,0,0c0,0,0.1,0.1,0.1,0.1c0,0,0,0,0,0
	c0,0,0.1,0.1,0.1,0.1c0,0,0,0,0,0c0,0,0.1,0,0.1,0.1c0,0,0,0,0,0c0.1,0,0.1,0.1,0.1,0.1c0.1,0,0.1,0,0.2,0.1c0,0,0,0,0,0
	c0,0,0.1,0,0.1,0c0,0,0,0,0.1,0c0,0,0.1,0,0.1,0c0,0,0,0,0.1,0c0,0,0.1,0,0.1,0c0,0,0,0,0.1,0c0,0,0.1,0,0.1,0c0,0,0,0,0.1,0
	c0,0,0.1,0,0.1,0c0,0,0,0,0.1,0c0.1,0,0.1,0,0.1,0c0,0,0,0,0.1,0c0,0,0.1,0,0.1,0c0,0,0,0,0,0l7-3.8c0.8-0.4,1.1-1.4,0.7-2.1
	c-0.4-0.8-1.3-1-2.1-0.6l-3,1.6l14-30.8c0.9,5.3,4.3,10.1,9.5,12.5c5.2,2.4,11,1.8,15.7-1l-9.4,20.6c-3.7,8.2-0.7,17.8,6.8,22.1
	l-1.3,2.9l-6.1-2.8c-0.7-0.3-1.6,0-2,0.6l-9.7,16.3c-0.2,0.4-0.3,0.9-0.2,1.3c0.1,0.4,0.4,0.8,0.8,1l18.7,8.5c0.8,0.4,1.7,0,2.1-0.8
	c0-0.1,0.1-0.2,0.1-0.3l5.9-17.9c0.3-0.8-0.1-1.6-0.8-1.9l-6.1-2.8l1.3-2.9c8.2,2.8,17.4-1.1,21.2-9.4l22-48.4l13.1,5.9
	c0.8,0.4,1.7,0,2-0.8C307.8,241.4,307.5,240.5,306.7,240.1z M246.3,317.8l-15.5-7.1l8.1-13.6l12.4,5.7L246.3,317.8z M234.5,248.9
	c-6.9-3.2-10-11.5-6.7-18.7c3-6.6,10.4-9.9,17.1-7.7l-1.3,2.9c-5.1-1.5-10.6,1.1-12.9,6.1c-2.5,5.5-0.2,12.1,5.2,14.5
	c4.1,1.9,9.1,0.9,12.3-2.5c0.6-0.6,0.6-1.6,0-2.2s-1.6-0.6-2.2,0.1c-2.3,2.4-5.8,3.1-8.8,1.8c-3.9-1.8-5.5-6.4-3.7-10.4
	c1.8-4,6.4-5.8,10.3-4c3,1.4,4.7,4.5,4.4,7.8c-0.1,0.9,0.5,1.6,1.4,1.7s1.6-0.6,1.7-1.4c0.4-4.1-1.5-8-4.8-10.2l1.3-2.9
	c6,3.6,8.4,11.3,5.4,17.9C249.8,248.8,241.5,252.1,234.5,248.9z M250.4,291.9l1.3-2.9c3.8,1.1,8,0,10.8-3c0.6-0.6,0.6-1.6,0-2.2
	s-1.6-0.6-2.2,0.1c-2.3,2.4-5.8,3.1-8.8,1.8c-3.9-1.8-5.5-6.4-3.7-10.4s6.4-5.8,10.3-4c3,1.4,4.7,4.5,4.4,7.8
	c-0.1,0.9,0.5,1.6,1.4,1.7s1.6-0.6,1.7-1.5c0.4-4.6-2-9-6.2-10.9c-5.4-2.5-11.9,0-14.4,5.6c-2.3,5-0.6,10.9,3.9,13.8l-1.3,2.9
	c-6-3.6-8.4-11.3-5.4-17.9c3.2-7.1,11.5-10.4,18.5-7.2c7,3.2,10,11.5,6.7,18.7C264.5,290.8,257,294.1,250.4,291.9z M271.6,275.1
	c-0.9-5.3-4.3-10.1-9.5-12.5c-5.2-2.4-11-1.8-15.7,1l9.4-20.6c3.7-8.2,0.7-17.8-6.8-22.1l1.3-2.9l39.2,17.9L271.6,275.1z"/>
<g>
	<g>
		<g>
			<path fill="#FFFFFF" d="M89.9,264.5c-2.5,1-3.6,3.9-2.6,6.3c1,2.5,3.9,3.6,6.3,2.6c2.5-1,3.6-3.9,2.6-6.3
				C95.2,264.6,92.4,263.4,89.9,264.5z"/>
			<path fill="#FFFFFF" d="M48.5,282c-2.5,1-3.6,3.9-2.6,6.3c1,2.5,3.9,3.6,6.3,2.6c2.5-1,3.6-3.9,2.6-6.3
				C53.8,282.1,51,280.9,48.5,282z"/>
			<path fill="#FFFFFF" d="M60.4,277c-2.5,1-3.6,3.9-2.6,6.3c1,2.5,3.9,3.6,6.3,2.6c2.5-1,3.6-3.9,2.6-6.3
				C65.7,277.1,62.8,275.9,60.4,277z"/>
			<path fill="#FFFFFF" d="M72.2,272c-2.5,1-3.6,3.9-2.6,6.3c1,2.5,3.9,3.6,6.3,2.6c2.5-1,3.6-3.9,2.6-6.3
				C77.5,272.1,74.6,270.9,72.2,272z"/>
			<path fill="#FFFFFF" d="M61,273.5l-8.8-20.8l-3.6,1.5l8.8,20.8c0.5-0.4,1.1-0.7,1.7-1C59.8,273.8,60.4,273.6,61,273.5z"/>
			<path fill="#FFFFFF" d="M80.2,229.9l-50.1,21.2c-0.8,0.4-1.2,1.3-0.9,2.2l1.4,3.4c0.4,0.8,1.3,1.2,2.2,0.9l50.1-21.2
				c0.8-0.4,1.2-1.3,0.9-2.2l-1.4-3.4C82,229.9,81.1,229.5,80.2,229.9z"/>
			<path fill="#FFFFFF" d="M49.2,278.5l-8.8-20.8l-3.6,1.5l8.8,20.8c0.5-0.4,1.1-0.7,1.7-1C47.9,278.8,48.6,278.6,49.2,278.5z"/>
			<path fill="#FFFFFF" d="M72.9,268.5l-8.8-20.8l-3.6,1.5l8.8,20.8c0.5-0.4,1.1-0.7,1.7-1S72.2,268.6,72.9,268.5z"/>
			<path fill="#FFFFFF" d="M88.7,261.6c0.5-0.2,1-0.4,1.5-0.5l-16.5-17.4l-3.9,1.6l16.7,17.6C87.1,262.4,87.9,261.9,88.7,261.6z"/>
		</g>
	</g>
</g>
<g>
	<g>
		<path fill="#FFFFFF" d="M286.8,433.8l0-9c2.5-0.6,4.3-2.9,4.3-5.5c0-3.1-2.6-5.7-5.7-5.7c-1.6,0-3,0.6-4,1.7l-7.6-4.4
			c0.1-0.5,0.2-1,0.2-1.5c0-2.7-1.8-4.9-4.3-5.5l0-10.4c2.5-0.6,4.3-2.9,4.3-5.5c0-3.1-2.6-5.7-5.7-5.7c-1.6,0-3,0.6-4,1.7l-7.6-4.4
			c0.1-0.5,0.2-1,0.2-1.5c0-3.1-2.6-5.7-5.7-5.7s-5.7,2.6-5.7,5.7c0,0.5,0.1,1,0.2,1.5l-7.6,4.4c-1-1-2.5-1.7-4.1-1.7
			c-3.1,0-5.7,2.6-5.7,5.7c0,2.7,1.8,4.9,4.3,5.5v10.4c-2.5,0.6-4.3,2.9-4.3,5.5c0,0.5,0.1,1,0.2,1.5l-7.6,4.4c-1-1-2.5-1.7-4.1-1.7
			c-3.1,0-5.7,2.6-5.7,5.7c0,2.7,1.8,4.9,4.3,5.5v9c-2.5,0.6-4.3,2.9-4.3,5.5c0,3.1,2.6,5.7,5.7,5.7c1.6,0,3-0.6,4.1-1.7l7.6,4.4
			c-0.1,0.5-0.2,1-0.2,1.5c0,3.1,2.6,5.7,5.7,5.7c3.1,0,5.7-2.6,5.7-5.7c0-0.5-0.1-1-0.2-1.5l7.6-4.4c1,1,2.5,1.7,4.1,1.7
			c1.6,0,3-0.6,4.1-1.7l7.6,4.4c-0.1,0.5-0.2,1-0.2,1.5c0,3.1,2.6,5.7,5.7,5.7s5.7-2.6,5.7-5.7c0-0.5-0.1-1-0.2-1.5l7.6-4.4
			c1,1,2.5,1.7,4.1,1.7c3.1,0,5.7-2.6,5.7-5.7C291.1,436.7,289.3,434.4,286.8,433.8z M249.6,433.8c-0.2,0-0.3,0.1-0.5,0.2
			c-0.1,0-0.3,0.1-0.4,0.1c-0.3,0.1-0.6,0.3-0.9,0.5c-0.1,0.1-0.2,0.2-0.3,0.2c-0.2,0.1-0.3,0.3-0.5,0.4c-0.1,0.1-0.2,0.2-0.3,0.3
			c-0.1,0.1-0.3,0.3-0.4,0.4c-0.1,0.1-0.2,0.3-0.3,0.4c-0.1,0.2-0.2,0.3-0.3,0.5c-0.1,0.1-0.1,0.3-0.2,0.4c-0.1,0.2-0.1,0.4-0.2,0.6
			c0,0.1-0.1,0.2-0.1,0.4c-0.1,0.4-0.1,0.7-0.1,1.1c0,0.3,0,0.6,0.1,1c0,0.1,0.1,0.3,0.1,0.4c0,0.1,0,0.1,0,0.2l-7.6,4.4
			c-1-1-2.5-1.7-4.1-1.7c-1.6,0-3,0.6-4.1,1.7l-7.6-4.4c0-0.1,0-0.1,0.1-0.2c0-0.1,0.1-0.2,0.1-0.3c0.1-0.3,0.1-0.7,0.1-1
			c0-0.4,0-0.7-0.1-1.1c0-0.1-0.1-0.2-0.1-0.3c-0.1-0.2-0.1-0.5-0.2-0.7c-0.1-0.1-0.1-0.2-0.2-0.4c-0.1-0.2-0.2-0.4-0.3-0.6
			c-0.1-0.1-0.1-0.2-0.2-0.3c-0.1-0.2-0.3-0.4-0.4-0.5c-0.1-0.1-0.2-0.2-0.2-0.3c-0.2-0.2-0.4-0.4-0.6-0.5c-0.1,0-0.1-0.1-0.2-0.1
			c-0.3-0.2-0.6-0.4-0.9-0.5c-0.1,0-0.2-0.1-0.3-0.1c-0.2-0.1-0.4-0.1-0.6-0.2v-8.9c0.2,0,0.4-0.1,0.6-0.2c0.1,0,0.2-0.1,0.3-0.1
			c0.3-0.1,0.6-0.3,0.9-0.5c0.1,0,0.1-0.1,0.2-0.1c0.2-0.2,0.4-0.3,0.6-0.5c0.1-0.1,0.2-0.2,0.2-0.3c0.1-0.2,0.3-0.3,0.4-0.5
			c0.1-0.1,0.1-0.2,0.2-0.3c0.1-0.2,0.2-0.4,0.3-0.6c0.1-0.1,0.1-0.2,0.2-0.4c0.1-0.2,0.1-0.5,0.2-0.7c0-0.1,0.1-0.2,0.1-0.3
			c0.1-0.4,0.1-0.7,0.1-1.1c0-0.3,0-0.7-0.1-1c0-0.1-0.1-0.2-0.1-0.3c0-0.1,0-0.1-0.1-0.2l7.6-4.4c1,1,2.5,1.7,4.1,1.7
			c0.4,0,0.8,0,1.2-0.1c0.1,0,0.2-0.1,0.3-0.1c0.3-0.1,0.5-0.1,0.8-0.3c0.1,0,0.2-0.1,0.3-0.2c0.2-0.1,0.5-0.3,0.7-0.4
			c0.1-0.1,0.2-0.1,0.3-0.2c0.2-0.2,0.4-0.4,0.6-0.6c0,0,0.1,0,0.1-0.1l3.6,1.8l3.6,1.8c-0.1,0.4-0.1,0.8-0.1,1.2
			c0,0.4,0,0.7,0.1,1.1c0,0.1,0.1,0.2,0.1,0.3c0.1,0.2,0.1,0.5,0.2,0.7c0.1,0.1,0.1,0.2,0.2,0.4c0.1,0.2,0.2,0.4,0.3,0.6
			c0.1,0.1,0.1,0.2,0.2,0.3c0.1,0.2,0.3,0.3,0.4,0.5c0.1,0.1,0.2,0.2,0.3,0.3c0.2,0.2,0.4,0.3,0.6,0.5c0.1,0,0.1,0.1,0.2,0.1
			c0.3,0.2,0.6,0.4,0.9,0.5c0.1,0,0.2,0.1,0.3,0.1c0.2,0.1,0.4,0.1,0.6,0.2L249.6,433.8z M251.1,412.2c-0.4,0-0.8,0-1.2,0.1
			c-0.1,0-0.2,0.1-0.3,0.1c-0.3,0.1-0.5,0.1-0.8,0.3c-0.1,0-0.2,0.1-0.3,0.2c-0.2,0.1-0.5,0.3-0.7,0.4c-0.1,0.1-0.2,0.1-0.3,0.2
			c-0.2,0.2-0.4,0.4-0.6,0.6c0,0-0.1,0-0.1,0.1l-3.6-1.8l-3.6-1.8c0.1-0.4,0.1-0.8,0.1-1.2c0-0.4,0-0.7-0.1-1.1
			c0-0.1-0.1-0.2-0.1-0.3c-0.1-0.2-0.1-0.5-0.2-0.7c-0.1-0.1-0.1-0.2-0.2-0.4c-0.1-0.2-0.2-0.4-0.3-0.6c-0.1-0.1-0.1-0.2-0.2-0.3
			c-0.1-0.2-0.3-0.4-0.4-0.5c-0.1-0.1-0.2-0.2-0.2-0.3c-0.2-0.2-0.4-0.4-0.6-0.5c-0.1,0-0.1-0.1-0.2-0.1c-0.3-0.2-0.6-0.4-0.9-0.5
			c-0.1,0-0.2-0.1-0.3-0.1c-0.2-0.1-0.4-0.1-0.6-0.2v-10.4c0.2,0,0.4-0.1,0.6-0.2c0.1,0,0.2-0.1,0.3-0.1c0.3-0.1,0.6-0.3,0.9-0.5
			c0.1,0,0.1-0.1,0.2-0.1c0.2-0.2,0.4-0.3,0.6-0.5c0.1-0.1,0.2-0.2,0.2-0.3c0.1-0.2,0.3-0.3,0.4-0.5c0.1-0.1,0.1-0.2,0.2-0.3
			c0.1-0.2,0.2-0.4,0.3-0.6c0.1-0.1,0.1-0.2,0.2-0.4c0.1-0.2,0.1-0.5,0.2-0.7c0-0.1,0.1-0.2,0.1-0.3c0.1-0.4,0.1-0.7,0.1-1.1
			c0-0.3,0-0.7-0.1-1c0-0.1-0.1-0.2-0.1-0.3c0-0.1,0-0.1-0.1-0.2l7.6-4.4c1,1,2.5,1.7,4.1,1.7c1.6,0,3-0.6,4.1-1.7l7.6,4.4
			c0,0.1,0,0.1,0,0.2c0,0.1,0,0.2-0.1,0.3c-0.1,0.3-0.1,0.7-0.1,1c0,0.4,0,0.7,0.1,1.1c0,0.1,0.1,0.2,0.1,0.3
			c0.1,0.2,0.1,0.5,0.2,0.7c0,0.1,0.1,0.2,0.2,0.4c0.1,0.2,0.2,0.4,0.3,0.6c0.1,0.1,0.1,0.2,0.2,0.3c0.1,0.2,0.3,0.3,0.4,0.5
			c0.1,0.1,0.2,0.2,0.3,0.3c0.2,0.2,0.4,0.3,0.6,0.5c0.1,0,0.1,0.1,0.2,0.1c0.3,0.2,0.6,0.4,0.9,0.5c0.1,0,0.2,0.1,0.3,0.1
			c0.2,0.1,0.4,0.1,0.5,0.2l0,10.4c-0.2,0-0.3,0.1-0.5,0.2c-0.1,0-0.3,0.1-0.4,0.1c-0.3,0.1-0.6,0.3-0.9,0.5
			c-0.1,0.1-0.2,0.2-0.3,0.2c-0.2,0.1-0.3,0.3-0.5,0.4c-0.1,0.1-0.2,0.2-0.3,0.3c-0.1,0.1-0.3,0.3-0.4,0.4c-0.1,0.1-0.2,0.3-0.3,0.4
			c-0.1,0.2-0.2,0.3-0.3,0.5c-0.1,0.1-0.1,0.3-0.2,0.4c-0.1,0.2-0.1,0.4-0.2,0.6c0,0.1-0.1,0.2-0.1,0.4c-0.1,0.4-0.1,0.7-0.1,1.1
			c0,0.4,0,0.8,0.1,1.2l-7.3,3.6c0,0-0.1,0-0.1-0.1c-0.2-0.2-0.4-0.4-0.6-0.6c-0.1-0.1-0.2-0.1-0.3-0.2c-0.2-0.2-0.4-0.3-0.7-0.4
			c-0.1-0.1-0.2-0.1-0.3-0.2c-0.3-0.1-0.5-0.2-0.8-0.3c-0.1,0-0.2-0.1-0.3-0.1C251.9,412.2,251.5,412.2,251.1,412.2z M283.9,433.8
			c-0.2,0-0.3,0.1-0.5,0.2c-0.1,0-0.3,0.1-0.4,0.1c-0.3,0.1-0.6,0.3-0.9,0.5c-0.1,0.1-0.2,0.2-0.3,0.2c-0.2,0.1-0.3,0.3-0.5,0.4
			c-0.1,0.1-0.2,0.2-0.3,0.3c-0.1,0.1-0.3,0.3-0.4,0.4c-0.1,0.1-0.2,0.3-0.3,0.4c-0.1,0.2-0.2,0.3-0.3,0.5c-0.1,0.1-0.1,0.3-0.2,0.4
			c-0.1,0.2-0.1,0.4-0.2,0.6c0,0.1-0.1,0.2-0.1,0.4c-0.1,0.4-0.1,0.7-0.1,1.1c0,0.3,0,0.6,0.1,1c0,0.1,0,0.3,0.1,0.4
			c0,0.1,0,0.1,0,0.2l-7.6,4.4c-1-1-2.5-1.7-4-1.7c-1.6,0-3,0.6-4.1,1.7l-7.6-4.4c0-0.1,0-0.1,0-0.2c0-0.1,0-0.2,0.1-0.3
			c0.1-0.3,0.1-0.7,0.1-1c0-0.4,0-0.7-0.1-1.1c0-0.1-0.1-0.2-0.1-0.3c-0.1-0.2-0.1-0.5-0.2-0.7c0-0.1-0.1-0.2-0.2-0.4
			c-0.1-0.2-0.2-0.4-0.3-0.6c-0.1-0.1-0.1-0.2-0.2-0.3c-0.1-0.2-0.3-0.4-0.4-0.5c-0.1-0.1-0.2-0.2-0.2-0.3c-0.2-0.2-0.4-0.4-0.6-0.5
			c-0.1,0-0.1-0.1-0.2-0.1c-0.3-0.2-0.6-0.4-0.9-0.5c-0.1,0-0.2-0.1-0.3-0.1c-0.2-0.1-0.4-0.1-0.6-0.2v-10.4c0.2,0,0.4-0.1,0.6-0.2
			c0.1,0,0.2-0.1,0.3-0.1c0.3-0.1,0.6-0.3,0.9-0.5c0.1,0,0.1-0.1,0.2-0.1c0.2-0.2,0.4-0.3,0.6-0.5c0.1-0.1,0.2-0.2,0.2-0.3
			c0.1-0.2,0.3-0.3,0.4-0.5c0.1-0.1,0.1-0.2,0.2-0.3c0.1-0.2,0.2-0.4,0.3-0.6c0.1-0.1,0.1-0.2,0.2-0.4c0.1-0.2,0.1-0.5,0.2-0.7
			c0-0.1,0.1-0.2,0.1-0.3c0.1-0.4,0.1-0.7,0.1-1.1c0-0.4,0-0.8-0.1-1.2l7.3-3.6c0,0,0,0,0.1,0.1c0.2,0.2,0.4,0.4,0.6,0.6
			c0.1,0.1,0.2,0.1,0.3,0.2c0.2,0.2,0.5,0.3,0.7,0.4c0.1,0.1,0.2,0.1,0.3,0.2c0.3,0.1,0.5,0.2,0.8,0.3c0.1,0,0.2,0.1,0.3,0.1
			c0.4,0.1,0.8,0.1,1.2,0.1c1.6,0,3-0.6,4-1.7l7.6,4.4c0,0.1,0,0.1,0,0.2c0,0.1,0,0.2-0.1,0.3c-0.1,0.3-0.1,0.7-0.1,1
			c0,0.4,0,0.7,0.1,1.1c0,0.1,0.1,0.2,0.1,0.3c0.1,0.2,0.1,0.5,0.2,0.7c0,0.1,0.1,0.3,0.2,0.4c0.1,0.2,0.2,0.4,0.3,0.5
			c0.1,0.1,0.1,0.2,0.2,0.4c0.1,0.2,0.3,0.3,0.4,0.5c0.1,0.1,0.2,0.2,0.3,0.3c0.2,0.2,0.4,0.3,0.6,0.5c0.1,0.1,0.1,0.1,0.2,0.2
			c0.3,0.2,0.6,0.4,0.9,0.5c0.1,0,0.2,0.1,0.3,0.1c0.2,0.1,0.4,0.1,0.5,0.2L283.9,433.8z"/>
	</g>
</g>
<g>
	<path fill="#FFFFFF" d="M84.5,422.3c-0.4-0.3-1-0.4-1.4-0.1s-0.7,0.8-0.6,1.4l3.5,23.7c0.1,0.7,0.8,1.3,1.5,1.1l23-3.4
		c0.5-0.1,0.9-0.5,1.1-1c0.1-0.5-0.1-1.1-0.5-1.4L84.5,422.3z M88.3,445.5l-2.8-19.1l21.4,16.4L88.3,445.5z"/>
	<path fill="#FFFFFF" d="M142.8,365.3l-7.8-6c-0.6-0.5-1.4-0.3-1.8,0.3l-33,45.9c-0.1,0.1-0.2,0.3-0.2,0.5l-2.6,11.7l-19.8-15.2
		l2.6-3.6c0.4-0.6,0.3-1.4-0.3-1.9s-1.4-0.3-1.8,0.3l-2.6,3.6l-5.9-4.6l-3.9-26.7c-0.1-0.7-0.8-1.3-1.5-1.1l-14.8,2.2
		c-0.7,0.1-1.2,0.8-1.1,1.5l15.7,106.4c0.1,0.7,0.8,1.3,1.5,1.1l14.8-2.2c0.7-0.1,1.2-0.8,1.1-1.5l-2.2-14.6l59.4-8.8l4.2,3.2
		c0.3,0.2,0.6,0.3,1,0.3s0.6-0.2,0.9-0.5c0.4-0.6,0.3-1.4-0.3-1.9l-44.7-34.3l10.1-6c0.2-0.1,0.3-0.2,0.4-0.4l33-45.9
		c0.2-0.3,0.3-0.6,0.2-1C143.3,365.8,143.1,365.5,142.8,365.3z M78.5,475.1l-12.3,1.8l-0.3-2.4l2.2-0.3c0.7-0.1,1.2-0.8,1.1-1.5
		s-0.8-1.3-1.5-1.1l-2.2,0.3l-0.6-4.2l2.2-0.3c0.7-0.1,1.2-0.8,1.1-1.5s-0.8-1.3-1.5-1.1l-2.2,0.3l-0.6-4.2l2.2-0.3
		c0.7-0.1,1.2-0.8,1.1-1.5s-0.8-1.3-1.5-1.1l-2.2,0.3l-0.6-4.2l2.2-0.3c0.7-0.1,1.2-0.8,1.1-1.5s-0.8-1.3-1.5-1.1l-2.2,0.3l-0.6-4.2
		l2.2-0.3c0.7-0.1,1.2-0.8,1.1-1.5s-0.8-1.3-1.5-1.1l-2.2,0.3l-0.6-4.2l2.2-0.3c0.7-0.1,1.2-0.8,1.1-1.5s-0.8-1.3-1.5-1.1l-2.2,0.3
		l-0.6-4.2l2.2-0.3c0.7-0.1,1.2-0.8,1.1-1.5s-0.8-1.3-1.5-1.1l-2.2,0.3l-0.6-4.2l2.2-0.3c0.7-0.1,1.2-0.8,1.1-1.5s-0.8-1.3-1.5-1.1
		l-2.2,0.3l-0.6-4.2l2.2-0.3c0.7-0.1,1.2-0.8,1.1-1.5s-0.8-1.3-1.5-1.1l-2.2,0.3l-0.6-4.2l2.2-0.3c0.7-0.1,1.2-0.8,1.1-1.5
		s-0.8-1.3-1.5-1.1l-2.2,0.3l-0.6-4.2l2.2-0.3c0.7-0.1,1.2-0.8,1.1-1.5s-0.8-1.3-1.5-1.1l-2.2,0.3l-0.6-4.2l2.2-0.2
		c0.7-0.1,1.2-0.8,1.1-1.5s-0.8-1.3-1.5-1.1l-2.2,0.3l-0.6-4.2l2.2-0.3c0.7-0.1,1.2-0.8,1.1-1.5s-0.8-1.3-1.5-1.1l-2.2,0.3l-0.6-4.2
		l2.2-0.3c0.7-0.1,1.2-0.8,1.1-1.5s-0.8-1.3-1.5-1.1l-2.2,0.3l-0.6-4.2l2.2-0.3c0.7-0.1,1.2-0.8,1.1-1.5s-0.8-1.3-1.5-1.1l-2.2,0.3
		l-0.3-2.4l12.3-1.8L78.5,475.1L78.5,475.1z M78.8,458.8l-8.6-58.7l7.3,5.6l-3.1,4.3c-0.4,0.6-0.3,1.4,0.3,1.9
		c0.3,0.2,0.6,0.3,1,0.3s0.6-0.2,0.9-0.5l3.1-4.3l3.3,2.5l-3.1,4.3c-0.4,0.6-0.3,1.4,0.3,1.9c0.3,0.2,0.6,0.3,1,0.3s0.6-0.2,0.9-0.5
		l3.1-4.3l3.3,2.5l-3.1,4.3c-0.4,0.6-0.3,1.4,0.3,1.9c0.3,0.2,0.6,0.3,1,0.3s0.6-0.2,0.9-0.5l3.1-4.3l3.3,2.5l-3.1,4.3
		c-0.4,0.6-0.3,1.4,0.3,1.9c0.3,0.2,0.6,0.3,1,0.3s0.6-0.2,0.9-0.5l3.1-4.3l3.3,2.5l-3.1,4.3c-0.4,0.6-0.3,1.4,0.3,1.9
		c0.3,0.2,0.6,0.3,1,0.3s0.6-0.2,0.9-0.5l3.1-4.3l3.3,2.5l-3.1,4.3c-0.4,0.6-0.3,1.4,0.3,1.9c0.3,0.2,0.6,0.3,1,0.3s0.6-0.2,0.9-0.5
		l3.1-4.3l3.3,2.5l-3.1,4.3c-0.4,0.6-0.3,1.4,0.3,1.9c0.3,0.2,0.6,0.3,1,0.3s0.6-0.2,0.9-0.5l3.1-4.3l3.3,2.5l-3.1,4.3
		c-0.4,0.6-0.3,1.4,0.3,1.9c0.3,0.2,0.6,0.3,1,0.3s0.6-0.2,0.9-0.5l3.1-4.3l3.3,2.5l-3.1,4.3c-0.4,0.6-0.3,1.4,0.3,1.9
		c0.3,0.2,0.6,0.3,1,0.3s0.6-0.2,0.9-0.5l3.1-4.3l3.3,2.5l-3.1,4.3c-0.4,0.6-0.3,1.4,0.3,1.9c0.3,0.2,0.6,0.3,1,0.3s0.6-0.2,0.9-0.5
		l3.1-4.3l7.3,5.6L78.8,458.8L78.8,458.8z M107,409l27.3-38l1.8,1.4l-27.3,38L107,409z M104.9,407.4l-1.8-1.4l27.3-38l1.8,1.4
		L104.9,407.4z M102.1,408.6l4.6,3.5l-6.2,3.7L102.1,408.6z M137.6,370.2l-5.6-4.3l2.6-3.6l5.6,4.3L137.6,370.2z"/>
	<path fill="#FFFFFF" d="M148,456.5c-0.6-0.5-1.4-0.3-1.8,0.3c-0.4,0.6-0.3,1.4,0.3,1.9l4.6,3.5c0.3,0.2,0.6,0.3,1,0.3
		s0.6-0.2,0.9-0.5c0.4-0.6,0.3-1.4-0.3-1.9L148,456.5z"/>
	<path fill="#FFFFFF" d="M156.2,462.8c-0.6-0.5-1.4-0.3-1.8,0.3c-0.4,0.6-0.3,1.4,0.3,1.9l0.1,0.1c0.3,0.2,0.6,0.3,1,0.3
		s0.6-0.2,0.9-0.5C157,464.2,156.9,463.4,156.2,462.8L156.2,462.8z"/>
	<path fill="#FFFFFF" d="M100.3,370.3c0.3,0,0.6-0.2,0.9-0.5l0.2-0.2c0.4-0.6,0.3-1.4-0.3-1.9s-1.4-0.3-1.8,0.3l-0.2,0.2
		c-0.4,0.6-0.3,1.4,0.3,1.9C99.6,370.3,99.9,370.4,100.3,370.3z"/>
	<path fill="#FFFFFF" d="M94.2,378.8c0.3,0,0.6-0.2,0.9-0.5l3.4-4.7c0.4-0.6,0.3-1.4-0.3-1.9s-1.4-0.3-1.8,0.3l-3.4,4.7
		c-0.4,0.6-0.3,1.4,0.3,1.9C93.5,378.7,93.9,378.8,94.2,378.8z"/>
	<path fill="#FFFFFF" d="M88.1,387.2c0.3,0,0.6-0.2,0.9-0.5l3.4-4.7c0.4-0.6,0.3-1.4-0.3-1.9s-1.4-0.3-1.8,0.3l-3.4,4.7
		c-0.4,0.6-0.3,1.4,0.3,1.9C87.4,387.2,87.8,387.3,88.1,387.2z"/>
	<path fill="#FFFFFF" d="M82.1,395.6c0.3,0,0.6-0.2,0.9-0.5l3.4-4.7c0.4-0.6,0.3-1.4-0.3-1.9s-1.4-0.3-1.8,0.3l-3.4,4.7
		c-0.4,0.6-0.3,1.4,0.3,1.9C81.4,395.6,81.7,395.7,82.1,395.6z"/>
</g>
<g>
	<g>
		<g>
			<path fill="#FFFFFF" d="M464.7,416.8l1.4-2.7l-16.1-8.6c-2.3-5.6-6.4-10.2-11.7-13.1c-5.3-2.8-11.5-3.7-17.4-2.4l-16.1-8.6
				l-1.4,2.7l-10.7-5.7L353,453.2l2.7,1.4l38.3-72l8,4.3l-1.4,2.7l10,5.3c-2.9,2.2-5.3,5-7,8.3c-0.5,0.9-0.9,1.8-1.2,2.8l-8.2-4.4
				l-1.4,2.7l-5.3-2.8l-29,54.7l2.7,1.4l27.6-52l2.7,1.4l-1.4,2.7l10.7,5.7c0,3.2,0.6,6.4,1.8,9.4l-0.7,1.4l-2.7-1.4l-1.4,2.7
				l2.7,1.4l-1.4,2.7l-2.7-1.4l-1.4,2.7l2.7,1.4l-1.4,2.7l-2.7-1.4l-1.4,2.7l2.7,1.4l-2.8,5.3l5.3,2.8l-12,22.7l2.7,1.4l12-22.7
				l13.3,7.1l-12,22.7l2.7,1.4l12-22.7l5.3,2.8l2.8-5.3l2.7,1.4l1.4-2.7l-2.7-1.4l1.4-2.7l2.7,1.4l1.4-2.7l-2.7-1.4l1.4-2.7l2.7,1.4
				l1.4-2.7l-2.7-1.4l0.7-1.4c3.1-0.7,6.1-2,8.8-3.8l10.7,5.7l1.4-2.7l2.7,1.4l-5.7,10.7l2.7,1.4l7.1-13.3l-5.3-2.8l1.4-2.7
				l-8.2-4.4c0.6-0.9,1.2-1.7,1.6-2.6c1.7-3.2,2.7-6.8,2.9-10.4l10,5.3l1.4-2.7l8,4.3l-38.3,72l2.7,1.4l39.7-74.7L464.7,416.8z
				 M448.7,408.3l2.7,1.4l-1.4,2.7l-2.7-1.4L448.7,408.3z M416.7,391.3l2.7,1.4l-1.4,2.7l-2.7-1.4L416.7,391.3z M404.6,388.3
				l1.4-2.7l8,4.3l-1.4,2.7L404.6,388.3z M402,412.5l-8-4.3l1.4-2.7l8,4.3L402,412.5z M419.8,456.2l-24-12.8l1.4-2.7l24,12.8
				L419.8,456.2z M425.5,445.5l-2.7-1.4l-1.4,2.7l2.7,1.4l-1.4,2.7l-24-12.8l1.4-2.7l18.7,9.9l1.4-2.7l-18.7-9.9l1.4-2.7l24,12.8
				L425.5,445.5z M439.3,432.4l-2.7-1.4l1.4-2.7l2.7,1.4L439.3,432.4z M444.6,428.3l-7.8-4.1l-1.4,2.7l-8-4.3l-1.4,2.7l8,4.3
				l-1.4,2.7l4.9,2.6c-2.2,1.2-4.6,2.1-7,2.6l-0.7,0.1l-1.4,2.7l-10.7-5.7l7.2-13.5c2.6,0.6,5.4-0.5,6.7-3c1.6-2.9,0.4-6.6-2.5-8.2
				c-2.9-1.6-6.6-0.4-8.2,2.5c-1.3,2.5-0.7,5.5,1.3,7.3l-7.2,13.5l-10.7-5.7l1.4-2.7l-0.3-0.7c-1-2.3-1.6-4.8-1.8-7.3l4.9,2.6
				l1.4-2.7l8,4.3l1.4-2.7l-8-4.3l1.4-2.7l-7.8-4.1c0.4-1,0.8-2,1.2-2.8c1.7-3.2,4.2-6,7.3-8.1l5.7,3l1.4-2.7l8,4.3l1.4-2.7l-8-4.3
				l0.7-1.3c4.9-0.8,9.8,0,14.1,2.3c4.3,2.3,7.8,6,9.9,10.4l-0.7,1.3l-8-4.3l-1.4,2.7l8,4.3l-1.4,2.7l5.7,3c0,3.7-0.9,7.3-2.6,10.6
				C445.8,426.6,445.2,427.5,444.6,428.3z M424.8,417.8c-1.5-0.8-2-2.6-1.3-4.1s2.6-2,4.1-1.3s2,2.6,1.3,4.1
				S426.3,418.6,424.8,417.8z M404.6,413.9l1.4-2.7l2.7,1.4l-1.4,2.7L404.6,413.9z M451.4,435.4l-1.4,2.7l-8-4.3l1.4-2.7
				L451.4,435.4z M460.6,418l-8-4.3l1.4-2.7l8,4.3L460.6,418z"/>
			
				<rect x="417.3" y="472.7" transform="matrix(0.4691 -0.8831 0.8831 0.4691 -185.6184 639.6565)" fill="#FFFFFF" width="43.8" height="3"/>
		</g>
	</g>
</g>
<g>
	<g>
		<g>
			<path fill="#FFFFFF" d="M409.9,218.7l-14.9-8.6c-0.6-0.4-1.3-0.3-1.9,0l-15.1,8.9c-0.9,0.5-1.2,1.7-0.7,2.6
				c0.4,0.6,1,0.9,1.6,0.9c0.3,0,0.7-0.1,1-0.3l14.1-8.4l14,8.1c0.9,0.5,2.1,0.2,2.6-0.7C411.2,220.4,410.9,219.3,409.9,218.7z"/>
			<path fill="#FFFFFF" d="M469.5,213.3l-24.1-13.9c0.1-0.5,0.2-1.1,0.2-1.7c0-4.8-3.9-8.6-8.6-8.6s-8.6,3.9-8.6,8.6
				s3.9,8.6,8.6,8.6c2.8,0,5.3-1.4,6.9-3.4l22.8,13.2v26.5l-23,13.3l-23-13.3V215c0-0.7-0.4-1.2-0.9-1.6c0,0-0.1-0.1-0.1-0.1
				l-0.1-0.1c0,0,0,0-0.1,0L394.8,199c-0.6-0.3-1.3-0.3-1.9,0L368,213.3c-0.6,0.3-1,1-1,1.7v28.7c0,0.7,0.4,1.3,1,1.7l23.9,13.8
				v28.5c0,0.7,0.4,1.3,1,1.7l24.9,14.4c0.3,0.2,0.6,0.3,1,0.3s0.7-0.1,1-0.3l23.1-13.4c1.5,1.3,3.5,2.1,5.6,2.1
				c4.8,0,8.6-3.9,8.6-8.6s-3.9-8.6-8.6-8.6s-8.6,3.9-8.6,8.6c0,1.2,0.3,2.4,0.7,3.4l-21.8,12.6l-23-13.3v-27.5l23-13.3l23.9,13.8
				c0.3,0.2,0.6,0.3,1,0.3s0.7-0.1,1-0.3l24.9-14.4c0.6-0.3,1-1,1-1.7V215C470.4,214.3,470,213.7,469.5,213.3z M436.9,202.6
				c-2.6,0-4.8-2.1-4.8-4.8s2.1-4.8,4.8-4.8s4.8,2.1,4.8,4.8C441.7,200.4,439.6,202.6,436.9,202.6z M448.4,279.1
				c2.6,0,4.8,2.1,4.8,4.8s-2.1,4.8-4.8,4.8c-1.1,0-2.1-0.4-2.9-1c0-0.3-0.1-0.6-0.2-0.9c-0.3-0.5-0.7-0.8-1.2-0.9
				c-0.3-0.6-0.4-1.3-0.4-2C443.6,281.3,445.8,279.1,448.4,279.1z M393.9,255.9l-23-13.3v-26.5l23-13.3l23,13.3v26.5L393.9,255.9z"
				/>
		</g>
	</g>
</g>
<g>
	<path fill="#FFFFFF" d="M423.4,110.6c0.1,0,0.1,0,0.2-0.1c7.1-3,11.2-10.6,9.7-18.2c-0.1-0.6-0.7-0.9-1.2-0.8
		c-0.6,0.1-0.9,0.7-0.8,1.2c1.3,6.6-2.3,13.3-8.5,15.9c-0.5,0.2-0.8,0.8-0.6,1.4C422.4,110.5,422.9,110.7,423.4,110.6z"/>
	<path fill="#FFFFFF" d="M428.8,78.4c-0.5-0.3-1.1-0.2-1.5,0.3c-0.3,0.5-0.2,1.1,0.3,1.5c4.1,2.8,6.9,6.9,7.8,11.8
		c2,10-4.6,19.7-14.6,21.6c-5,1-10.2-0.2-14.3-3.2c-0.5-0.3-1.1-0.2-1.5,0.2s-0.2,1.1,0.2,1.5c4.6,3.3,10.4,4.6,16,3.5
		c11.1-2.2,18.4-13,16.2-24.1C436.4,86.2,433.4,81.5,428.8,78.4z"/>
	<path fill="#FFFFFF" d="M423.5,71.5l-1.9-9.6c1.8-0.4,2.9-2.2,2.6-4c-0.4-1.8-2.2-3.1-4-2.7l-20.7,4c-1.9,0.4-3.1,2.2-2.7,4
		c0.4,1.8,2.1,3,3.9,2.7l1.9,9.6c-7.6,5.7-11.4,15.3-9.5,24.6c2.6,13.4,15.6,22.2,29,19.6s22.2-15.7,19.6-29
		C439.8,81.4,432.7,73.9,423.5,71.5z M398.9,62.8c-0.1-0.7,0.3-1.4,1-1.5l20.7-4c0.7-0.1,1.4,0.3,1.5,1c0.1,0.7-0.3,1.4-1,1.5
		l-20.7,4C399.7,64,399,63.6,398.9,62.8z M421.6,117.7c-12.3,2.4-24.2-5.6-26.6-17.9c-1.7-8.8,1.9-17.8,9.2-22.9
		c0.4-0.3,0.5-0.7,0.4-1.1l-2-10.3l16.9-3.3l2,10.3c0.1,0.4,0.4,0.7,0.8,0.8c8.7,2,15.5,9,17.2,17.8
		C442,103.4,433.9,115.3,421.6,117.7z"/>
	<path fill="#FFFFFF" d="M406.6,35.8l1.2-0.2l3.9,19.7c0.1,0.6,0.7,0.9,1.2,0.8s0.9-0.7,0.8-1.2l-3.9-19.7l21.3-4.2l0.8,4.1
		c0.1,0.6,0.7,0.9,1.2,0.8c0.6-0.1,0.9-0.7,0.8-1.2l-0.8-4.1l1.2-0.2c1.9-0.4,3.1-2.2,2.7-4c-0.4-1.9-2.2-3.1-4-2.7l-27.9,5.4
		c-1.9,0.4-3.1,2.2-2.7,4C403,35,404.8,36.2,406.6,35.8z M405.7,31.1l27.9-5.4c0.7-0.1,1.4,0.3,1.5,1c0.1,0.7-0.3,1.4-1,1.5
		l-27.9,5.4c-0.7,0.1-1.4-0.3-1.5-1S405,31.3,405.7,31.1z"/>
	<path fill="#FFFFFF" d="M472.8,94l-22.6-35.6l-3.5-17.7l0.5-0.1c1.9-0.4,3.1-2.2,2.7-4c-0.4-1.8-2.2-3.1-4-2.7l-17.3,3.4
		c-1.9,0.4-3.1,2.2-2.7,4c0.4,1.8,2.2,3.1,4,2.7l0.5-0.1l3.5,17.7l-2.1,11.5c-0.1,0.6,0.3,1.1,0.9,1.2c0.6,0.1,1.1-0.3,1.2-0.8l2-11
		l12.7-2.5L471,95.1c1,1.5,1.1,3.3,0.4,5c-0.7,1.7-2.1,2.8-3.9,3.1l-26.4,5.1c-0.6,0.1-0.9,0.7-0.8,1.2s0.7,0.9,1.2,0.8l26.4-5.1
		c2.4-0.5,4.5-2.1,5.4-4.4C474.3,98.7,474.1,96.1,472.8,94z M428,40.9c-0.1-0.7,0.3-1.4,1-1.5l17.3-3.4c0.7-0.1,1.4,0.3,1.5,1
		s-0.3,1.4-1,1.5l-17.3,3.4C428.9,42.1,428.2,41.6,428,40.9z M444.7,41.1L448,58l-12.1,2.4l-3.3-16.8L444.7,41.1z"/>
	<path fill="#FFFFFF" d="M450.4,70.5l17,26.9c0.2,0.4,0.7,0.6,1.1,0.5c0.1,0,0.3-0.1,0.4-0.1c0.5-0.3,0.6-1,0.3-1.4l-17-26.9
		c-0.3-0.5-1-0.6-1.5-0.3C450.2,69.4,450.1,70,450.4,70.5z"/>
	<path fill="#FFFFFF" d="M449.2,64.7c-0.3-0.5-1-0.6-1.5-0.3c-0.5,0.3-0.6,1-0.3,1.4l1.2,1.9c0.2,0.4,0.7,0.6,1.1,0.5
		c0.1,0,0.3-0.1,0.4-0.1c0.5-0.3,0.6-1,0.3-1.4L449.2,64.7z"/>
	<path fill="#FFFFFF" d="M449,76.3l11.8,18.5c0.2,0.4,0.7,0.6,1.1,0.5c0.1,0,0.3-0.1,0.4-0.1c0.5-0.3,0.6-1,0.3-1.4l-11.8-18.5
		c-0.3-0.5-1-0.6-1.5-0.3C448.9,75.1,448.7,75.8,449,76.3z"/>
	<path fill="#FFFFFF" d="M445.6,57.1c0.6-0.1,0.9-0.7,0.8-1.2L444,43.4c-0.1-0.6-0.7-0.9-1.2-0.8c-0.6,0.1-0.9,0.7-0.8,1.2l2.4,12.4
		C444.5,56.8,445.1,57.2,445.6,57.1z"/>
	<path fill="#FFFFFF" d="M411.9,38.4l1.8,9.3c0.1,0.6,0.7,0.9,1.2,0.8s0.9-0.7,0.8-1.2L414,38c-0.1-0.6-0.7-0.9-1.2-0.8
		S411.8,37.8,411.9,38.4z"/>
	<path fill="#FFFFFF" d="M419,71.8c0.6-0.1,0.9-0.7,0.8-1.2l-1.2-6c-0.1-0.6-0.7-0.9-1.2-0.8c-0.6,0.1-0.9,0.7-0.8,1.2l1.2,6
		C417.9,71.5,418.4,71.9,419,71.8z"/>
	<path fill="#FFFFFF" d="M406.4,74.3c0.6-0.1,0.9-0.7,0.8-1.2l-0.4-1.9c-0.1-0.6-0.7-0.9-1.2-0.8c-0.6,0.1-0.9,0.7-0.8,1.2l0.4,1.9
		C405.2,74,405.8,74.4,406.4,74.3z"/>
	<path fill="#FFFFFF" d="M405.4,69.4c0.3-0.1,0.5-0.2,0.7-0.4c0.2-0.2,0.2-0.5,0.2-0.8c0-0.3-0.2-0.5-0.5-0.7s-0.5-0.2-0.8-0.2
		c-0.3,0.1-0.5,0.2-0.7,0.4c-0.1,0.2-0.2,0.5-0.2,0.8s0.2,0.5,0.4,0.7C404.8,69.4,405.1,69.5,405.4,69.4z"/>
</g>
</svg>
