<?xml version="1.0" encoding="utf-8"?>
<!-- Generator: Adobe Illustrator 26.0.2, SVG Export Plug-In . SVG Version: 6.00 Build 0)  -->
<svg version="1.1" id="Слой_1" xmlns="http://www.w3.org/2000/svg" xmlns:xlink="http://www.w3.org/1999/xlink" x="0px" y="0px"
	 viewBox="0 0 1200 1200" style="enable-background:new 0 0 1200 1200;" xml:space="preserve">
<g>
	<path d="M1183.79,682.07l-131.92-1.04c-38.59,214.81-226.8,377.19-452.44,375.48c-252.19-1.92-455.08-207.94-453.1-460.13
		c1.92-252.19,207.94-455.08,460.13-453.1c225.64,1.76,411.32,166.99,446.61,382.35l131.92,1.04
		C1149.11,238.92,905.33,15.04,607.46,12.73C283.15,10.26,18.26,271.08,15.73,595.39c-2.47,324.31,258.35,589.2,582.65,591.67
		C896.31,1189.36,1143.5,969.22,1183.79,682.07"/>
	<path d="M604.76,781.51l-0.27,158.91h60.08V775.73c-8.74,2.25-19.13,4.29-29.24,5.39C623.95,782.38,614.66,782.6,604.76,781.51"/>
	<path d="M604.54,449.89v33.09l0,0v199.2c9.89,0.71,19.9-0.93,30.12-0.93c10.17,0,20.12-3.24,29.96-3.96V508.15
		c98.39,16,164.9,56.89,164.9,94.38c0,47.77-107.74,101.2-252.03,101.41c-144.34-0.22-252.08-53.65-252.08-101.41
		c0-40.29,76.84-84.43,187.49-97.46c0.55,0,1.04,0.05,1.54,0.05c10.17,0,20.12-0.49,29.96-1.21v-1.7h0.05v-52.11h-0.05V304.77
		h-60.02v151.55c-24.02,3.68-46.67,8.68-67.5,15.01l-0.44-0.33c-88,26.27-144.67,74.15-144.67,131.48
		c0,87.4,131.04,153.3,304.85,153.3c0.33,0,0.6,0,0.93,0c0.33,0,0.6,0,0.93,0c19.79,0,38.92-0.93,57.44-2.58l-0.11-0.11
		c37.32-3.41,71.68-10.06,102.35-19.35l0.44,0.33c88-26.22,144.67-74.15,144.67-131.48C883.23,519.59,765.1,456.15,604.54,449.89"/>
</g>
</svg>
