<?xml version="1.0" encoding="utf-8"?>
<!-- Generator: Adobe Illustrator 24.0.1, SVG Export Plug-In . SVG Version: 6.00 Build 0)  -->
<svg version="1.1" id="Слой_1" xmlns="http://www.w3.org/2000/svg" xmlns:xlink="http://www.w3.org/1999/xlink" x="0px" y="0px"
	 viewBox="0 0 125 25" enable-background="new 0 0 125 25" xml:space="preserve">
<g>
	<path fill="#FFFFFF" d="M32,14.1v4.2h-2V6.9h4.4c1.3,0,2.3,0.3,3,1c0.7,0.7,1.1,1.5,1.1,2.6c0,1.1-0.4,2-1.1,2.6
		c-0.7,0.6-1.8,0.9-3.1,0.9H32z M32,12.5h2.4c0.7,0,1.2-0.2,1.6-0.5c0.4-0.3,0.6-0.8,0.6-1.4c0-0.6-0.2-1.1-0.6-1.5
		s-0.9-0.6-1.5-0.6H32V12.5z"/>
	<path fill="#FFFFFF" d="M41.9,10.8c0.6-0.7,1.4-1.1,2.4-1.1c1.8,0,2.7,1,2.7,3.1v5.5h-1.9v-5.5c0-0.6-0.1-1-0.4-1.2
		c-0.3-0.2-0.6-0.4-1.1-0.4c-0.8,0-1.3,0.3-1.7,1v6h-1.9v-12h1.9V10.8z"/>
	<path fill="#FFFFFF" d="M51.9,15.6l1.7-5.7h2l-3.4,9.7c-0.5,1.4-1.4,2.1-2.6,2.1c-0.3,0-0.6,0-0.9-0.1v-1.5l0.4,0
		c0.5,0,0.8-0.1,1.1-0.3c0.2-0.2,0.4-0.5,0.6-0.9l0.3-0.7l-3-8.4h2L51.9,15.6z"/>
	<path fill="#FFFFFF" d="M61.5,16c0-0.3-0.1-0.6-0.4-0.8c-0.3-0.2-0.7-0.3-1.4-0.5c-0.6-0.1-1.2-0.3-1.6-0.5c-0.9-0.5-1.4-1.1-1.4-2
		c0-0.7,0.3-1.3,0.9-1.8c0.6-0.5,1.4-0.7,2.3-0.7c1,0,1.8,0.3,2.4,0.8c0.6,0.5,0.9,1.1,0.9,1.9h-1.9c0-0.4-0.1-0.7-0.4-0.9
		c-0.3-0.2-0.6-0.4-1.1-0.4c-0.4,0-0.8,0.1-1,0.3c-0.3,0.2-0.4,0.5-0.4,0.8c0,0.3,0.1,0.5,0.4,0.7c0.2,0.2,0.7,0.3,1.5,0.5
		c0.7,0.2,1.3,0.4,1.8,0.6c0.4,0.2,0.7,0.5,0.9,0.8c0.2,0.3,0.3,0.7,0.3,1.2c0,0.8-0.3,1.4-0.9,1.8c-0.6,0.5-1.5,0.7-2.5,0.7
		c-0.7,0-1.3-0.1-1.9-0.4c-0.5-0.3-1-0.6-1.3-1c-0.3-0.4-0.5-0.9-0.5-1.4h1.8c0,0.4,0.2,0.8,0.5,1S59.4,17,60,17
		c0.5,0,0.9-0.1,1.1-0.3C61.4,16.6,61.5,16.3,61.5,16z"/>
	<path fill="#FFFFFF" d="M67.4,7.8v2.1h1.5v1.4h-1.5V16c0,0.3,0.1,0.6,0.2,0.7c0.1,0.1,0.4,0.2,0.7,0.2c0.2,0,0.4,0,0.7-0.1v1.5
		c-0.4,0.1-0.8,0.2-1.3,0.2c-1.5,0-2.2-0.8-2.2-2.4v-4.8h-1.4V9.8h1.4V7.8H67.4z"/>
	<path fill="#FFFFFF" d="M74.1,18.4c-1.2,0-2.2-0.4-2.9-1.1c-0.7-0.8-1.1-1.8-1.1-3v-0.2c0-0.8,0.2-1.6,0.5-2.3
		c0.3-0.7,0.8-1.2,1.4-1.6c0.6-0.4,1.2-0.6,2-0.6c1.2,0,2,0.4,2.7,1.1c0.6,0.7,0.9,1.8,0.9,3.1v0.8h-5.5c0.1,0.7,0.3,1.3,0.7,1.7
		c0.4,0.4,0.9,0.6,1.5,0.6c0.9,0,1.6-0.4,2.1-1.1l1,1C77,17.4,76.5,17.8,76,18C75.4,18.3,74.8,18.4,74.1,18.4z M73.8,11.2
		c-0.5,0-0.9,0.2-1.3,0.5c-0.3,0.4-0.5,0.9-0.6,1.5h3.6v-0.1c0-0.6-0.2-1.1-0.5-1.4C74.8,11.4,74.3,11.2,73.8,11.2z"/>
	<path fill="#FFFFFF" d="M82.4,16.9c0.5,0,0.9-0.1,1.2-0.4c0.3-0.3,0.5-0.6,0.5-1h1.8c0,0.5-0.2,1-0.5,1.5c-0.3,0.5-0.7,0.8-1.3,1.1
		c-0.5,0.3-1.1,0.4-1.7,0.4c-1.2,0-2.1-0.4-2.8-1.1c-0.7-0.8-1-1.8-1-3.2v-0.2c0-1.3,0.3-2.3,1-3.1s1.6-1.2,2.8-1.2
		c1,0,1.8,0.3,2.5,0.9s1,1.4,1,2.3h-1.8c0-0.5-0.2-0.9-0.5-1.2c-0.3-0.3-0.7-0.5-1.2-0.5c-0.6,0-1.1,0.2-1.4,0.7
		c-0.3,0.4-0.5,1.1-0.5,2v0.3c0,0.9,0.2,1.6,0.5,2.1C81.3,16.7,81.8,16.9,82.4,16.9z"/>
	<path fill="#FFFFFF" d="M89.2,10.8c0.6-0.7,1.4-1.1,2.4-1.1c1.8,0,2.7,1,2.7,3.1v5.5h-1.9v-5.5c0-0.6-0.1-1-0.4-1.2
		c-0.3-0.2-0.6-0.4-1.1-0.4c-0.8,0-1.3,0.3-1.7,1v6h-1.9v-12h1.9V10.8z"/>
	<path fill="#FFFFFF" d="M109.4,12.9c0,1.1-0.2,2-0.5,2.8s-0.8,1.4-1.4,1.9l2,1.5l-1.3,1.2l-2.4-1.9c-0.3,0.1-0.7,0.1-1,0.1
		c-0.9,0-1.7-0.2-2.5-0.7c-0.7-0.5-1.3-1.1-1.7-1.9c-0.4-0.8-0.6-1.8-0.6-2.9v-0.6c0-1.1,0.2-2.1,0.6-2.9c0.4-0.8,0.9-1.5,1.7-1.9
		c0.7-0.5,1.5-0.7,2.5-0.7c0.9,0,1.8,0.2,2.5,0.7s1.3,1.1,1.7,1.9s0.6,1.8,0.6,2.9V12.9z M107.4,12.3c0-1.3-0.2-2.3-0.7-2.9
		c-0.5-0.7-1.2-1-2-1c-0.8,0-1.5,0.3-2,1c-0.5,0.7-0.7,1.6-0.7,2.8v0.7c0,1.2,0.2,2.2,0.7,2.9c0.5,0.7,1.2,1,2,1c0.9,0,1.6-0.3,2-1
		c0.5-0.7,0.7-1.6,0.7-2.9V12.3z"/>
	<path fill="#FFFFFF" d="M115.6,13.9h-2.2v4.4h-2V6.9h4c1.3,0,2.3,0.3,3,0.9c0.7,0.6,1.1,1.4,1.1,2.6c0,0.8-0.2,1.4-0.6,1.9
		c-0.4,0.5-0.9,0.9-1.5,1.2l2.6,4.7v0.1h-2.1L115.6,13.9z M113.4,12.3h2c0.7,0,1.2-0.2,1.6-0.5s0.6-0.8,0.6-1.4
		c0-0.6-0.2-1.1-0.5-1.4c-0.3-0.3-0.9-0.5-1.6-0.5h-2.1V12.3z"/>
</g>
<g>
	<path fill="#FFFFFF" d="M22.5,13.3l-2.2,0c-0.6,3.5-3.7,6.2-7.4,6.1c-4.1,0-7.4-3.4-7.4-7.5c0-4.1,3.4-7.4,7.5-7.4
		c3.7,0,6.7,2.7,7.3,6.3l2.2,0C22,6.1,18,2.4,13.1,2.4c-5.3,0-9.6,4.2-9.7,9.5c0,5.3,4.2,9.6,9.5,9.7C17.8,21.6,21.9,18,22.5,13.3"
		/>
	<path fill="#FFFFFF" d="M13.1,15l0,2.6h1v-2.7c-0.1,0-0.3,0.1-0.5,0.1C13.4,15,13.2,15,13.1,15"/>
	<path fill="#FFFFFF" d="M13.1,9.5v0.5l0,0v3.3c0.2,0,0.3,0,0.5,0c0.2,0,0.3-0.1,0.5-0.1v-2.8c1.6,0.3,2.7,0.9,2.7,1.5
		c0,0.8-1.8,1.7-4.1,1.7c-2.4,0-4.1-0.9-4.1-1.7c0-0.7,1.3-1.4,3.1-1.6c0,0,0,0,0,0c0.2,0,0.3,0,0.5,0v0h0V9.6h0V7.2h-1v2.5
		c-0.4,0.1-0.8,0.1-1.1,0.2l0,0c-1.4,0.4-2.4,1.2-2.4,2.1c0,1.4,2.1,2.5,5,2.5c0,0,0,0,0,0c0,0,0,0,0,0c0.3,0,0.6,0,0.9,0l0,0
		c0.6-0.1,1.2-0.2,1.7-0.3l0,0c1.4-0.4,2.4-1.2,2.4-2.1C17.6,10.7,15.7,9.6,13.1,9.5"/>
</g>
<g>
</g>
<g>
</g>
<g>
</g>
<g>
</g>
<g>
</g>
<g>
</g>
</svg>
