<?xml version="1.0" encoding="utf-8"?>
<!-- Generator: Adobe Illustrator 24.0.1, SVG Export Plug-In . SVG Version: 6.00 Build 0)  -->
<svg version="1.1" id="Слой_1" xmlns="http://www.w3.org/2000/svg" xmlns:xlink="http://www.w3.org/1999/xlink" x="0px" y="0px"
	 viewBox="0 0 595 350" style="enable-background:new 0 0 595 350;" xml:space="preserve">
<style type="text/css">
	.st0{fill:#FFFFFF;}
	.st1{font-family:'MullerBold';}
	.st2{font-size:40.0284px;}
</style>
<path class="st0" d="M222.2,182.81l-24-0.19c-7.02,39.08-41.26,68.62-82.31,68.31c-45.88-0.35-82.79-37.83-82.43-83.71
	c0.35-45.88,37.83-82.79,83.71-82.43c41.05,0.32,74.83,30.38,81.25,69.56l24,0.19c-6.53-52.35-50.88-93.08-105.07-93.5
	c-59-0.45-107.19,47-107.65,106c-0.45,59,47,107.19,106,107.64C169.9,275.1,214.87,235.05,222.2,182.81"/>
<path class="st0" d="M116.86,200.9l-0.05,28.91h10.93v-29.96c-1.59,0.41-3.48,0.78-5.32,0.98
	C120.35,201.06,118.66,201.1,116.86,200.9"/>
<path class="st0" d="M116.82,140.57v6.02h0v36.24c1.8,0.13,3.62-0.17,5.48-0.17c1.85,0,3.66-0.59,5.45-0.72v-30.77
	c17.9,2.91,30,10.35,30,17.17c0,8.69-19.6,18.41-45.85,18.45c-26.26-0.04-45.86-9.76-45.86-18.45c0-7.33,13.98-15.36,34.11-17.73
	c0.1,0,0.19,0.01,0.28,0.01c1.85,0,3.66-0.09,5.45-0.22v-0.31l0.01,0v-9.48l-0.01,0l0-26.44H94.96v27.57
	c-4.37,0.67-8.49,1.58-12.28,2.73l-0.08-0.06c-16.01,4.78-26.32,13.49-26.32,23.92c0,15.9,23.84,27.89,55.46,27.89
	c0.06,0,0.11,0,0.17,0c0.06,0,0.11,0,0.17,0c3.6,0,7.08-0.17,10.45-0.47l-0.02-0.02c6.79-0.62,13.04-1.83,18.62-3.52l0.08,0.06
	c16.01-4.77,26.32-13.49,26.32-23.92C167.52,153.25,146.03,141.71,116.82,140.57"/>
<path class="st0" d="M279.85,170.53c13.25-0.05,23.69,4.14,23.75,18.33c0.05,14.19-10.36,18.46-23.61,18.51l-8.94,0.04l0.07,18.03
	l-11.76,0.04l-0.21-54.88L279.85,170.53z M280.44,180.87l-9.49,0.04l0.06,16.15l9.49-0.04c6.04-0.02,11.13-1.69,11.1-8.12
	C291.58,182.4,286.48,180.85,280.44,180.87"/>
<polygon class="st0" points="359.5,170.22 359.71,225.1 347.95,225.15 347.87,203.04 323.25,203.13 323.33,225.24 311.57,225.29 
	311.37,170.41 323.13,170.36 323.21,192.47 347.83,192.38 347.74,170.27 "/>
<polygon class="st0" points="387.31,225 387.23,205.55 365.62,170.2 378.86,170.15 392.99,194.71 406.93,170.04 420.18,169.99 
	398.91,205.51 398.99,224.95 "/>
<path class="st0" d="M441.66,168.81c6.51-0.03,13.1,1.52,17.81,4.16l0.04,10.98c-4.64-3.28-10.84-4.9-16.95-4.8
	c-5.96,0.1-8.93,1.76-8.92,5.13c0.04,9.49,30.05,5.84,30.12,25.37c0.05,12.31-9.82,16.19-21.34,16.23
	c-7.6,0.03-14.67-1.75-20.32-4.86l-0.04-11.21c6.29,4.13,13.19,5.75,19.46,5.73c6.35-0.02,10.26-1.37,10.25-5.29
	c-0.04-10.27-30.05-6.32-30.12-25.76C421.61,173.91,430.84,168.85,441.66,168.81"/>
<rect x="471.63" y="169.78" transform="matrix(1 -3.843271e-03 3.843271e-03 1 -0.7544 1.8367)" class="st0" width="11.76" height="54.88"/>
<path class="st0" d="M521.46,168.51c5.49-0.02,10.98,1.13,15.69,3.47l0.04,11.21c-3.54-2.73-8.64-4.28-13.74-4.26
	c-9.64,0.04-19.34,5.56-19.29,18.81c-0.03,12.07,9.87,17.37,19.43,17.33c5.64-0.02,10.81-1.61,14.09-4.6l0.04,11.52
	c-4.69,2.29-10.1,3.57-15.9,3.59c-14.66,0.06-29.67-8.67-29.74-27.8C492.1,177.72,506.8,168.57,521.46,168.51"/>
<path class="st0" d="M563.95,168.35c6.51-0.03,13.1,1.52,17.81,4.16l0.04,10.98c-4.64-3.28-10.84-4.9-16.95-4.79
	c-5.96,0.1-8.93,1.76-8.92,5.13c0.04,9.49,30.05,5.84,30.13,25.37c0.04,12.31-9.82,16.19-21.34,16.23
	c-7.61,0.03-14.67-1.75-20.32-4.86l-0.04-11.21c6.29,4.13,13.19,5.75,19.46,5.73c6.35-0.02,10.27-1.37,10.25-5.29
	c-0.04-10.27-30.05-6.32-30.13-25.76C543.9,173.44,553.13,168.39,563.95,168.35"/>
<text transform="matrix(1 0 0 1 255.6367 155.4766)" class="st0 st1 st2">faculty of</text>
</svg>
