<?xml version="1.0" encoding="utf-8"?>
<!-- Generator: Adobe Illustrator 26.0.2, SVG Export Plug-In . SVG Version: 6.00 Build 0)  -->
<svg version="1.1" id="Слой_1" xmlns="http://www.w3.org/2000/svg" xmlns:xlink="http://www.w3.org/1999/xlink" x="0px" y="0px"
	 viewBox="0 0 1200 1200" style="enable-background:new 0 0 1200 1200;" xml:space="preserve">
<style type="text/css">
	.st0{stroke:#000000;stroke-miterlimit:10;}
	.st1{fill:#FFFFFF;stroke:#FED103;stroke-width:15;stroke-miterlimit:10;}
	.st2{fill:none;stroke:#B2B2B2;stroke-width:7;stroke-linejoin:round;stroke-dasharray:60.3811,40.2541;}
</style>
<path class="st0" d="M100,0h1000c55,0,100,45,100,100v1000c0,55-45,100-100,100H100c-55,0-100-45-100-100V100C0,45,45,0,100,0z"/>
<path class="st1" d="M170,70h860c55,0,100,45,100,100v860c0,55-45,100-100,100H170c-55,0-100-45-100-100V170C70,115,115,70,170,70z"
	/>
<g>
	<path class="st2" d="M125,25h950c55,0,100,45,100,100v950c0,55-45,100-100,100H125c-55,0-100-45-100-100V125C25,70,70,25,125,25z"
		/>
</g>
</svg>
