<?xml version="1.0" encoding="utf-8"?>
<!-- Generator: Adobe Illustrator 24.0.1, SVG Export Plug-In . SVG Version: 6.00 Build 0)  -->
<svg version="1.1" id="Слой_1" xmlns="http://www.w3.org/2000/svg" xmlns:xlink="http://www.w3.org/1999/xlink" x="0px" y="0px"
	 viewBox="0 0 1200 1200" style="enable-background:new 0 0 1200 1200;" xml:space="preserve">
<style type="text/css">
	.st0{stroke:#000000;stroke-miterlimit:10;}
	.st1{fill:#FFFFFF;stroke:#FED103;stroke-width:15;stroke-miterlimit:10;}
</style>
<path class="st0" d="M100,0h1000c55,0,100,45,100,100v1000c0,55-45,100-100,100H100c-55,0-100-45-100-100V100C0,45,45,0,100,0z"/>
<path class="st1" d="M149.7,45h900.6c57.6,0,104.7,47.1,104.7,104.7v900.6c0,57.6-47.1,104.7-104.7,104.7H149.7
	C92.1,1155,45,1107.9,45,1050.3V149.7C45,92.1,92.1,45,149.7,45z"/>
</svg>
