<?xml version="1.0" encoding="utf-8"?>
<!-- Generator: Adobe Illustrator 24.0.1, SVG Export Plug-In . SVG Version: 6.00 Build 0)  -->
<svg width="1200" height="1200" xmlns="http://www.w3.org/2000/svg" xmlns:xlink="http://www.w3.org/1999/xlink" x="0px" y="0px"
	 viewBox="0 0 1200 1200" style="enable-background:new 0 0 1200 1200;" xml:space="preserve">
<style type="text/css">
	.st054{stroke:#000000;stroke-miterlimit:10;}
	.st196{fill:#FFFFFF;stroke:#FED103;stroke-width:15;stroke-miterlimit:10;}
	.st247{fill:none;stroke:#B2B2B2;stroke-width:7;stroke-linejoin:round;stroke-dasharray:60.9061,40.6042;}
	.st300{fill:#FFFFFF;}
	.st400{font-family:'Arial';}
	.st500{font-size:40px;}
</style>
<path class="st054" d="M100,0h1000c55,0,100,45,100,100v1000c0,55-45,100-100,100H100c-55,0-100-45-100-100V100C0,45,45,0,100,0z"/>
<path class="st196" d="M153.8,50h892.5c57.1,0,103.8,46.7,103.8,103.8v892.5c0,57.1-46.7,103.8-103.8,103.8H153.8
	C96.7,1150,50,1103.3,50,1046.2V153.8C50,96.7,96.7,50,153.8,50z"/>
<g>
	<g>
		<path class="st247" d="M120.9,20h958.3c55.5,0,100.9,45.4,100.9,100.9v958.3c0,55.5-45.4,100.9-100.9,100.9H120.9
			C65.4,1180,20,1134.6,20,1079.1V120.9C20,65.4,65.4,20,120.9,20z"/>
	</g>
</g>
<rect x="470" y="1160" width="260" height="40"/>
<text transform="matrix(1 0 0 1 540 1192)" class="st300 st400 st500">CODE</text>
</svg>
