<?xml version="1.0" encoding="utf-8"?>
<!-- Generator: Adobe Illustrator 26.0.2, SVG Export Plug-In . SVG Version: 6.00 Build 0)  -->
<svg width="1000" height="1000" xmlns="http://www.w3.org/2000/svg" xmlns:xlink="http://www.w3.org/1999/xlink" x="0px" y="0px"
	 viewBox="0 0 1200 1200" style="enable-background:new 0 0 1200 1200;" xml:space="preserve">
<style type="text/css">
	.st40{fill:#FFFFFF;}
	.st100{fill:none;stroke:#FDD105;stroke-width:15;stroke-miterlimit:10;}}
</style>
<rect y="3.5" class="st40" width="1200" height="1196.5"/>
<g>
	<path d="M1155.9,678.3l-125.7-1c-36.8,204.7-216.1,359.4-431,357.8c-240.3-1.8-433.6-198.1-431.7-438.4
		c1.8-240.3,198.1-433.6,438.4-431.7c214.9,1.7,391.9,159.1,425.5,364.3l125.7,1C1122.8,256,890.6,42.7,606.8,40.5
		C297.7,38.2,45.4,286.7,43,595.7s246.2,561.4,555.2,563.8C882,1161.7,1117.5,951.9,1155.9,678.3"/>
	<path d="M604.2,773L604,924.4h57.3V767.5c-8.3,2.1-18.2,4.1-27.8,5.1C622.5,773.9,613.7,774.1,604.2,773"/>
	<path d="M604,457.1v31.5l0,0v189.8c9.4,0.7,19-0.9,28.7-0.9s19.2-3,28.6-3.8V512.5c93.8,15.2,157.1,54.2,157.1,89.9
		c0,45.5-102.6,96.4-240.1,96.6C440.8,698.9,338,647.9,338,602.5c0-38.4,73.2-80.4,178.6-92.9c0.5,0,1,0,1.4,0
		c9.7,0,19.2-0.5,28.6-1.1v-1.6l0,0v-49.6l0,0V318.8h-57.2v144.4c-22.9,3.5-44.5,8.3-64.3,14.3l-0.4-0.3
		C341,502.3,287,547.9,287,602.6c0,83.3,124.8,146.1,290.5,146.1c0.3,0,0.6,0,0.9,0s0.6,0,0.9,0c18.9,0,37.1-0.9,54.7-2.5l-0.1-0.1
		c35.5-3.2,68.3-9.6,97.5-18.4l0.4,0.3c83.8-25,137.9-70.7,137.9-125.3C869.5,523.5,757,463,604,457.1"/>
</g>
<rect x="7.5" y="7.5" class="st100" width="1185" height="1185"/>
</svg>
