<?xml version="1.0" encoding="utf-8"?>
<!-- Generator: Adobe Illustrator 26.0.2, SVG Export Plug-In . SVG Version: 6.00 Build 0)  -->
<svg width="1000" height="1000" xmlns="http://www.w3.org/2000/svg" xmlns:xlink="http://www.w3.org/1999/xlink" x="0px" y="0px"
	 viewBox="0 0 1200 1200" style="enable-background:new 0 0 1200 1200;" xml:space="preserve">
<style type="text/css">
	.st30{fill:#FFFFFF;}
</style>
<circle class="st30" cx="600" cy="600" r="600"/>
<g>
	<path d="M1098.9,670l-112.8-0.9c-33,182.9-194,321.2-386.9,319.7c-215.7-1.6-389.2-177-387.5-391.8
		c1.6-214.7,177.8-387.5,393.5-385.8c192.9,1.5,351.8,142.2,381.9,325.5l112.8,0.9C1069.2,292.6,860.8,102,606.1,100
		C328.6,98,102.2,320,100,596.2s221,501.7,498.3,503.8C853.1,1102,1064.5,914.5,1098.9,670"/>
	<path d="M603.7,754.6l-0.2,135.3H655V749.7c-7.4,1.9-16.3,3.7-25,4.6C620.2,755.4,612.3,755.6,603.7,754.6"/>
	<path d="M603.6,472.3v28.1l0,0v169.6c8.4,0.6,17.1-0.8,25.8-0.8c8.7,0,17.2-2.7,25.7-3.4V521.8c84.2,13.6,141,48.4,141,80.3
		c0,40.7-92.1,86.1-215.5,86.3c-123.4-0.1-215.7-45.7-215.7-86.2c0-34.3,65.7-71.8,160.3-83c0.4,0,0.9,0,1.3,0
		c8.7,0,17.2-0.4,25.7-1v-1.4l0,0v-44.3l0,0V348.7h-51.3v129c-20.6,3.1-39.9,7.4-57.7,12.8l-0.4-0.3
		C367.5,512.7,319,553.4,319,602.3c0,74.4,112,130.6,260.7,130.6c0.3,0,0.5,0,0.8,0c0.3,0,0.5,0,0.8,0c17,0,33.3-0.8,49.1-2.2
		l-0.1-0.1c31.9-2.9,61.3-8.6,87.5-16.4l0.4,0.3C793.5,692,842,651.2,842,602.4C841.9,531.6,740.9,477.6,603.6,472.3"/>
</g>
</svg>
